<?xml version="1.0" encoding="UTF-8"?>
<svg id="_圖層_2" data-name="圖層 2" xmlns="http://www.w3.org/2000/svg" xmlns:xlink="http://www.w3.org/1999/xlink" viewBox="0 0 84 105">
  <defs>
    <style>
      .cls-1 {
        fill: #eedede;
        filter: url(#drop-shadow-1);
        opacity: .9;
      }
    </style>
    <filter id="drop-shadow-1" filterUnits="userSpaceOnUse">
      <feOffset dx="2.04" dy="2.04"/>
      <feGaussianBlur result="blur" stdDeviation="2.71"/>
      <feFlood flood-color="#7c483d" flood-opacity=".6"/>
      <feComposite in2="blur" operator="in"/>
      <feComposite in="SourceGraphic"/>
    </filter>
  </defs>
  <g id="_圖層_2-2" data-name="圖層 2">
    <path class="cls-1" d="m65.7,6.14c-2.72.49-4.97,1.94-7.19,3.47-15.39,10.55-30.79,21.09-46.19,31.63-1.95,1.33-3.65,2.88-4.61,5.09-1.45,3.35-.6,7.15,2.25,9.85.71.68,1.5,1.3,2.32,1.85,15.84,10.85,31.68,21.7,47.53,32.53,1.71,1.17,3.5,2.21,5.61,2.49,3.37.46,5.84-1.21,6.56-4.54.25-1.15.37-2.35.37-3.53.02-23.55.02-47.09,0-70.64,0-1.29-.14-2.61-.46-3.86-.58-2.32-2.11-3.8-4.48-4.36h-1.7Z"/>
  </g>
</svg>