<?xml version="1.0" encoding="UTF-8"?>
<svg id="_圖層_2" data-name="圖層 2" xmlns="http://www.w3.org/2000/svg" viewBox="0 0 68 61.87">
  <defs>
    <style>
      .cls-1 {
        fill: #80402b;
      }
    </style>
  </defs>
  <g id="_圖層_2-2" data-name="圖層 2">
    <g>
      <path class="cls-1" d="m24.23,40.66c-3.1,2.4-6.22.9-8.5-.93-.83-.67-1.7-1.32-2.64-1.82-2.21-1.18-4.12-2.66-5.4-4.96-.43-.77-1.05-1.42-1.58-2.13-1.89-2.51-1.28-5.24-.56-7.93,1.22-4.54,4.79-5.48,8.56-6.07.2-.03.39-.07.68-.13.21-1.57.27-3.17.66-4.68,1.33-5.15,5.2-7.68,9.41-9.77,5.86-2.92,11.85-2.89,17.81-.44,2.23.92,4.34,2.22,5.58,4.6.52,1,1.21,1.05,2.28.73,3.54-1.07,7.02-.93,10.48.68,3.41,1.59,4.77,4.7,5.68,8.05.71,2.58,1.05,5.31,1.28,8,.16,1.85-.57,3.5-2.05,4.76-1.65,1.4-3.14,3-4.75,4.46-3.11,2.81-6.55,3.04-10.19,1.28-.18-.09-.36-.16-.55-.24-.55,2.02-.99,4.02-1.65,5.94-.89,2.59-2.78,4.14-5.22,4.96-2.08.69-4.13,1.58-6.26,1.95-2.36.41-4.85.74-7.19.39-2.82-.42-4.33-2.89-5.45-5.51-.08-.19-.12-.41-.19-.61-.07-.19-.16-.38-.24-.58Zm29.33-10.83c2.67-.14,5.18-.62,7.51-1.99,1.97-1.16,3.38-4.25,2.89-6.52-.45-2.08-.97-4.15-1.52-6.21-.16-.6-.45-1.21-.82-1.7-2.67-3.49-8.31-4.25-11.85-1.7-.29.21-1.04.11-1.31-.15-1.18-1.15-2.17-2.51-3.38-3.6-4.01-3.57-8.88-3.66-13.65-2.96-3.26.48-6.43,1.8-9.58,2.94-2.69.97-4.69,2.76-4.89,6.06-.08,1.33-.13,2.67-.28,3.99-.05.47-.25,1.12-.57,1.31-1.18.67-2.41,1.25-3.67,1.72-2.58.96-3.89,4.66-2.28,7.01,1.45,2.12,3.09,4.09,4.69,6.09.27.34.74.54,1.15.7,2.75,1.03,5.57.85,8.38.35,1.04-.19,1.81.07,2.21,1.15.24.65.41,1.32.63,1.97.69,2,1.63,2.78,3.65,2.65,1.91-.12,3.85-.28,5.7-.76,5.6-1.44,10.58-3.79,12.29-10.43.09-.35.91-.73,1.35-.68,1.13.12,2.25.48,3.37.74Z"/>
      <path class="cls-1" d="m11.18,52.64c.09-2.8.61-4.83,2.38-6.2,1.64-1.26,3.76-.91,5.73.95,1.15,1.08,1.47,2.95.62,4.88-.55,1.26-1.23,2.5-2.06,3.53-1.03,1.27-2.24,2.37-4,1.57-1.5-.68-2.65-2.56-2.69-4.54,0-.24.04-.47.01-.19Zm3.45-3.61c-.13,1.67-.56,3.15.96,3.61.41.12,1.48-.76,1.55-1.29.23-1.96-1.49-1.41-2.51-2.33Z"/>
      <path class="cls-1" d="m1.35,58.19l-.82,1.17c-.18-.07-.35-.14-.53-.21.2-1.68.4-3.36.62-5.04.02-.15.17-.41.26-.41,1.48,0,3.05-.33,4.38.18.62.24,1.04,2.1,1.02,3.22-.02,1.26-.42,2.68-1.05,3.73-.85,1.44-2.78,1.36-3.61-.09-.38-.67-.23-1.72-.31-2.6.76.28,1.51.64,2.29.81.33.07.82-.17,1.05-.46.17-.22.17-.84.01-1.12-.49-.85-2.92-.22-3.31.82Z"/>
    </g>
  </g>
</svg>