<?xml version="1.0" encoding="UTF-8"?>
<svg id="_圖層_2" data-name="圖層 2" xmlns="http://www.w3.org/2000/svg" viewBox="0 0 54.63 73.5">
  <defs>
    <style>
      .cls-1 {
        fill: #eedede;
      }
    </style>
  </defs>
  <g id="_圖層_2-2" data-name="圖層 2">
    <g>
      <path class="cls-1" d="m46.82,0c.32.32.76.61,1.03,1.04,1.42,2.25,2.51,4.86,4.27,6.73,2.35,2.5,2.35,5.48,2.38,8.53.1,8.99.13,17.98.12,26.97,0,2.15-.36,4.3-.35,6.45.03,5.14.22,10.27.27,15.4.02,1.84-.15,3.69-.26,5.54-.08,1.28-.69,1.96-1.92,1.85-1.21-.11-2.37-.47-3.47.81-.4.46-1.73-.08-2.64-.1-4.47-.06-8.95,0-13.42-.16-5.25-.18-10.49-.58-15.74-.79-1.73-.07-3.6-.86-5.16.76-.14.14-.66.01-.89-.17-2.45-1.91-4.87-3.86-7.29-5.8-1.93-1.55-2.45-3.79-2.8-6.24C-.39,51.46.08,42.06.07,32.67c0-5.02,0-10.04,0-15.06,0-4.78.05-9.57.04-14.35C.11,1.49.72.37,2.45.31c2.18-.08,4.37-.21,6.55-.16,9.19.21,18.37.51,27.56.69,2.89.06,5.79-.14,8.69-.29.5-.02.99-.34,1.58-.56Zm-1.55,61.96c.15-2.77.46-5.87.44-8.96-.05-11.68-.16-23.37-.35-35.05-.07-4.07-.45-8.13-.62-12.2-.06-1.29-.6-1.69-1.67-1.52-1.13.18-2.27.52-3.4.5-6.92-.12-13.84-.31-20.76-.51-4.46-.13-8.93-.28-13.39-.5-1.03-.05-1.39.22-1.25,1.4.15,1.24.2,2.51.16,3.76-.09,2.98-.31,5.96-.36,8.95-.13,8.02-.28,16.04-.26,24.05.01,6.04.26,12.08.43,18.13.02.56.26,1.11.28,1.18,13.71.26,27.14.51,40.74.77Zm2.32-57.33c.05,1.19.07,1.88.1,2.57.46,9.09,1.02,18.18,1.37,27.27.31,7.9.4,15.81.56,23.71.05,2.72-.02,5.45,0,8.18.02,1.71,1.29,2.24,2.68,3.24-.2-2.53-.55-4.65-.5-6.77.14-6.21.55-12.41.66-18.62.18-10.73.2-21.46.28-32.19,0-.28-.04-.64-.19-.84-1.53-2.06-3.1-4.1-4.95-6.55Zm2.03,65.28c-1.58-.97-2.79-2.27-4.09-2.39-5.22-.5-10.47-.69-15.71-.87-5.3-.19-10.61-.18-15.91-.35-2.27-.08-4.53-.4-6.91-.63.13.3.16.5.27.59,2.7,2.4,5.47,4.51,9.27,3.34.72-.22,1.53-.18,2.29-.14,6.55.37,13.09.87,19.64,1.12,3.55.13,7.16.83,11.15-.67Z"/>
      <path class="cls-1" d="m28.09,45.9c-.07-1.01-.14-2.02-.22-3.16h5.39c.13-2.06.2-4.02.4-5.98.05-.48.53-.92.81-1.38.42.39,1.1.73,1.2,1.2.28,1.26.33,2.56.43,3.85.05.73,0,1.46,0,2.09,1.91.89,5.17-.87,5.15,2.55-.03,3.41-3.25,1.27-5.1,2.35,0,2.23.04,4.67-.02,7.1-.03,1.22.49,2.92-1.34,3.09-.37.03-1.19-1.99-1.35-3.13-.23-1.68-.17-3.43-.03-5.13.15-1.77-.37-2.49-2.26-2.32-1.14.1-2.32-.28-3.48-.44.14-.23.28-.46.42-.69Z"/>
    </g>
  </g>
</svg>