<?xml version="1.0" encoding="UTF-8"?>
<svg id="_圖層_2" data-name="圖層 2" xmlns="http://www.w3.org/2000/svg" viewBox="0 0 51 51">
  <defs>
    <style>
      .cls-1 {
        fill: #fff;
      }

      .cls-2 {
        fill: #0562d0;
      }
    </style>
  </defs>
  <g id="_圖層_2-2" data-name="圖層 2">
    <g>
      <path class="cls-2" d="m51,25.5C51,11.42,39.58,0,25.5,0S0,11.42,0,25.5c0,12.73,9.33,23.28,21.52,25.19v-17.82h-6.47v-7.37h6.47v-5.62c0-6.39,3.81-9.92,9.63-9.92,2.79,0,5.71.5,5.71.5v6.28h-3.22c-3.17,0-4.16,1.97-4.16,3.98v4.78h7.07l-1.13,7.37h-5.94v17.82c12.19-1.91,21.52-12.46,21.52-25.19Z"/>
      <path class="cls-1" d="m35.43,32.87l1.13-7.37h-7.07v-4.78c0-2.02.99-3.98,4.16-3.98h3.22v-6.28s-2.92-.5-5.71-.5c-5.82,0-9.63,3.53-9.63,9.92v5.62h-6.47v7.37h6.47v17.82c1.3.2,2.63.31,3.98.31s2.69-.11,3.98-.31v-17.82h5.94Z"/>
    </g>
  </g>
</svg>