<?xml version="1.0" encoding="UTF-8"?>
<svg id="_圖層_2" data-name="圖層 2" xmlns="http://www.w3.org/2000/svg" viewBox="0 0 50.93 51">
  <defs>
    <style>
      .cls-1 {
        fill: #fff;
      }

      .cls-2 {
        fill: #39cb00;
      }

      .cls-3 {
        fill: #00c000;
      }

      .cls-4 {
        fill: #fafcfa;
      }
    </style>
  </defs>
  <g id="_圖層_2-2" data-name="圖層 2">
    <g>
      <path class="cls-2" d="m23.49,0h3.98c.02.08.08.08.15.1.87.18,1.76.22,2.64.39,2.02.38,3.98.99,5.84,1.85,2.2,1.03,4.23,2.31,6.05,3.93,1.37,1.22,2.61,2.53,3.72,3.99,1.35,1.78,2.41,3.72,3.23,5.78.69,1.71,1.19,3.47,1.44,5.31.08.6.1,1.23.3,1.81,0,.11-.07.24.08.3v1.09c-.15.23-.15.46,0,.7v.4c-.15.23-.15.46,0,.7v1.09c-.07.03-.08.09-.1.16-.22,1.15-.33,2.33-.58,3.48-.45,2.08-1.17,4.05-2.13,5.94-.95,1.86-2.11,3.57-3.5,5.15-1.18,1.34-2.46,2.57-3.88,3.63-1.85,1.38-3.85,2.5-6,3.35-2.73,1.07-5.55,1.71-8.48,1.76-.84.02-1.69,0-2.53,0-.15,0-.33-.1-.45.09h-.1c-.04-.09.08-.33-.2-.21-.81-.04-1.62-.05-2.39-.37-.13-.13-.27-.13-.4,0h-.1c-.09-.05-.17-.16-.3-.1-.66-.19-1.37-.25-1.98-.62-.01-.02-.03-.05-.04-.07-.02.02-.05.05-.07.07-.08,0-.18.02-.24-.02-.82-.44-1.72-.67-2.56-1.05-2.67-1.2-5.03-2.84-7.14-4.86-1.56-1.49-2.89-3.17-4.02-5.01-1.19-1.95-2.1-4.02-2.74-6.22-.21-.74-.36-1.5-.54-2.26-.24-1.05-.35-2.11-.43-3.18-.08-1.07-.02-2.15-.02-3.23,0-.18-.02-.36.1-.52.23-.26-.06-.51-.01-.78.19-1.05.29-2.12.59-3.14.31-1.05.53-2.13,1.05-3.13.23-.44.37-1.02.58-1.5,1.14-2.56,2.74-4.84,4.64-6.89,1.26-1.36,2.7-2.53,4.23-3.57,2.03-1.38,4.21-2.45,6.56-3.17,1.33-.41,2.69-.7,4.07-.91.55-.08,1.14,0,1.66-.28Zm9.09,11.98c-.02-.17-.12-.12-.22-.08-.9-.29-1.8-.6-2.74-.75-.95-.15-1.9-.37-2.86-.4-1.08-.04-2.17-.05-3.26.07-1.47.17-2.91.44-4.34.84-1.3.37-2.52.9-3.68,1.58-1.79,1.04-3.4,2.27-4.6,3.99-.85,1.21-1.62,2.46-2,3.91-.41,1.54-.46,3.11-.26,4.69.03.28.24.59.04.9-.01.07.01.1.08.08.22.57.44,1.15.66,1.72-.02.07.02.1.08.12.24.69.64,1.29,1.05,1.88.8,1.16,1.71,2.21,2.83,3.07,1.49,1.15,3.1,2.11,4.88,2.75.86.31,1.73.67,2.62.84.79.15,1.59.31,2.41.37.45.04.73.32.76.88.04.59-.16,1.16-.05,1.74-.13.02-.18.1-.19.22-.13.29.22.56.03.85-.35.53-.05.93.28,1.29.31.35.71.21,1.05.03,1.3-.69,2.61-1.35,3.88-2.09,3.17-1.83,6.15-3.91,8.66-6.61.85-.91,1.6-1.88,2.33-2.88,1.62-2.24,2.53-4.68,2.32-7.52-.12-1.63-.55-3.14-1.29-4.58.02-.03.05-.05.07-.08-.03-.01-.05-.03-.08-.04-.54-.86-1.11-1.71-1.8-2.46-1.86-2-4.08-3.46-6.68-4.34Z"/>
      <path class="cls-1" d="m8.65,26.72c.21-.3,0-.61-.04-.9-.19-1.58-.15-3.15.26-4.69.38-1.44,1.15-2.7,2-3.91,1.2-1.72,2.81-2.95,4.6-3.99,1.16-.68,2.38-1.21,3.68-1.58,1.42-.41,2.86-.68,4.34-.84,1.09-.12,2.18-.11,3.26-.07.96.03,1.91.26,2.86.4.94.14,1.84.46,2.74.75.04.12.13.1.22.08,2.6.87,4.82,2.34,6.68,4.34.69.74,1.26,1.59,1.8,2.46,0,.04,0,.08,0,.12.74,1.44,1.16,2.95,1.29,4.58.21,2.83-.7,5.27-2.32,7.52-.73,1-1.48,1.97-2.33,2.88-2.51,2.7-5.49,4.79-8.66,6.61-1.27.73-2.58,1.4-3.88,2.09-.35.18-.74.32-1.05-.03-.32-.36-.63-.77-.28-1.29.19-.29-.16-.56-.03-.85.13-.02.24-.05.19-.22-.12-.58.08-1.15.05-1.74-.04-.56-.32-.84-.76-.88-.81-.07-1.61-.22-2.41-.37-.89-.17-1.76-.53-2.62-.84-1.78-.64-3.39-1.6-4.88-2.75-1.11-.86-2.03-1.91-2.83-3.07-.41-.6-.81-1.2-1.05-1.88l-.08-.12c-.22-.57-.44-1.15-.66-1.72-.03-.03-.06-.05-.08-.08Zm23.02-2.36c0-.97,0-1.94,0-2.91,0-.24,0-.49-.15-.71-.28-.37-.67-.49-1.07-.35-.41.13-.5.56-.51.94-.02,1.08,0,2.15-.01,3.23,0,.15.09.36-.07.43-.2.08-.21-.17-.3-.28-.23-.29-.46-.57-.68-.85-.79-1.01-1.57-2.03-2.36-3.04-.14-.18-.31-.33-.53-.42-.57-.22-1.05.14-1.06.81-.01,2.01-.02,4.02.01,6.03,0,.26-.24.5-.01.79.25.32.45.69.95.55.51-.15.78-.47.77-1.03-.01-1.01,0-2.01,0-3.02,0-.15-.12-.4.12-.45.15-.03.26.16.36.3,1.01,1.31,2.02,2.63,3.06,3.91.42.51.96.41,1.31-.17.16-.26.18-.56.18-.85,0-.97,0-1.94,0-2.91Zm3.93-4.05h0c-.58,0-1.17-.01-1.75,0-.65.02-.87.25-.88.9,0,1.5,0,3,0,4.5,0,.55.05,1.1-.01,1.64-.09.81.2,1.23,1.01,1.24,1.08.01,2.15.01,3.23,0,.56,0,.98-.39.98-.87,0-.46-.44-.86-.98-.88-.46-.01-.92,0-1.38,0-1.21,0-1.2,0-1.14-1.21.01-.26.1-.32.34-.32.69.01,1.38.01,2.06,0,.67,0,1.13-.38,1.08-.93-.06-.54-.42-.82-1.08-.82-.42,0-.85,0-1.27,0-1.16,0-1.15,0-1.13-1.18,0-.27.07-.36.35-.36.74.02,1.48.01,2.22,0,.57,0,.91-.33.93-.83.01-.53-.35-.88-.94-.89-.55-.01-1.09,0-1.64,0Zm-19.76,4.23h-.01c0,1.08,0,2.15,0,3.23,0,.49.33.84.79.84,1.13,0,2.26,0,3.39,0,.59,0,1.03-.41,1.01-.9-.01-.47-.44-.84-1-.86-.14,0-.28,0-.42,0-.65-.02-1.52.27-1.89-.1-.4-.4-.09-1.27-.12-1.93-.05-1.2.07-2.39-.07-3.59-.07-.58-.36-.88-.89-.86-.51.02-.79.34-.79.95,0,1.08,0,2.15,0,3.23Zm6.03-.1c0,1.11,0,2.22,0,3.33,0,.63.21.85.83.85.64,0,.91-.25.91-.98.02-2.17.01-4.34,0-6.51,0-.61-.28-.79-1.09-.77-.47,0-.65.23-.65.8,0,1.09,0,2.19,0,3.28Z"/>
      <path class="cls-4" d="m41.05,18.89s0-.08,0-.12c.03.01.05.03.08.04-.02.03-.05.05-.07.08Z"/>
      <path class="cls-3" d="m31.68,24.36c0,.97,0,1.94,0,2.91,0,.3-.02.59-.18.85-.35.59-.89.69-1.31.17-1.04-1.28-2.05-2.6-3.06-3.91-.11-.14-.21-.33-.36-.3-.24.05-.12.29-.12.45-.01,1.01-.02,2.01,0,3.02,0,.55-.26.88-.77,1.03-.5.14-.69-.23-.95-.55-.23-.29.02-.53.01-.79-.03-2.01-.02-4.02-.01-6.03,0-.67.49-1.03,1.06-.81.21.08.39.23.53.42.79,1.01,1.57,2.03,2.36,3.04.22.29.46.57.68.85.09.11.1.36.3.28.16-.07.07-.28.07-.43,0-1.08,0-2.15.01-3.23,0-.39.1-.81.51-.94.4-.13.79-.02,1.07.35.16.22.15.46.15.71,0,.97,0,1.94,0,2.91Zm-4.96-.46s-.02-.02-.03-.02c-.04.02-.04.04,0,.07,0,0,.02,0,.03-.02,0,0,0-.02,0-.03Z"/>
      <path class="cls-3" d="m35.61,20.32c.55,0,1.09,0,1.64,0,.58.01.95.37.94.89-.01.51-.36.83-.93.83-.74,0-1.48.01-2.22,0-.28,0-.35.08-.35.36-.02,1.18-.04,1.18,1.13,1.18.42,0,.85,0,1.27,0,.66,0,1.03.28,1.08.82.06.55-.41.93-1.08.93-.69,0-1.38,0-2.06,0-.24,0-.33.06-.34.32-.05,1.21-.06,1.21,1.14,1.21.46,0,.92,0,1.38,0,.55.01.98.41.98.88,0,.48-.42.87-.98.87-1.08.01-2.15.01-3.23,0-.81,0-1.1-.42-1.01-1.24.06-.54.01-1.09.01-1.64,0-1.5,0-3,0-4.5,0-.65.23-.88.88-.9.58-.02,1.16,0,1.75,0h0Z"/>
      <path class="cls-3" d="m15.85,24.54c0-1.08,0-2.15,0-3.23,0-.61.28-.94.79-.95.52-.02.82.28.89.86.14,1.19.02,2.39.07,3.59.03.66-.28,1.53.12,1.93.37.37,1.24.08,1.89.1.14,0,.28,0,.42,0,.56.02.99.39,1,.86.01.49-.42.89-1.01.9-1.13.01-2.26,0-3.39,0-.46,0-.79-.35-.79-.84,0-1.08,0-2.15,0-3.23h.01Z"/>
      <path class="cls-3" d="m21.88,24.44c0-1.09,0-2.19,0-3.28,0-.57.19-.79.65-.8.82-.02,1.09.16,1.09.77.01,2.17.02,4.34,0,6.51,0,.74-.27.98-.91.98-.62,0-.83-.22-.83-.85,0-1.11,0-2.22,0-3.33Z"/>
      <path class="cls-4" d="m26.72,23.9s0,.03,0,.03c0,0-.02.02-.03.02-.04-.02-.04-.05,0-.07,0,0,.02.01.03.02Z"/>
    </g>
  </g>
</svg>