<?xml version="1.0" encoding="UTF-8"?>
<svg xmlns="http://www.w3.org/2000/svg" xmlns:xlink="http://www.w3.org/1999/xlink" viewBox="0 0 146 146">
  <defs>
    <style>
      .cls-1 {
        fill: #eedede;
        filter: url(#drop-shadow-1);
        mix-blend-mode: overlay;
        opacity: .8;
      }

      .cls-2 {
        isolation: isolate;
      }

      .cls-3 {
        fill: #aa4b41;
      }
    </style>
    <filter id="drop-shadow-1" filterUnits="userSpaceOnUse">
      <feOffset dx="2" dy="2"/>
      <feGaussianBlur result="blur" stdDeviation="2"/>
      <feFlood flood-color="#602e08" flood-opacity=".6"/>
      <feComposite in2="blur" operator="in"/>
      <feComposite in="SourceGraphic"/>
    </filter>
  </defs>
  <g class="cls-2">
    <g id="_圖層_2" data-name="圖層 2">
      <g id="_圖層_2-2" data-name="圖層 2">
        <circle class="cls-1" cx="71.08" cy="70.53" r="66.51"/>
        <path class="cls-3" d="m105.82,36.33c-1.56-1.56-4.08-1.56-5.64,0l-8.28,8.28c-1.61-1.18-3.37-2.18-5.11-3.17-1.22-.69-2.7-.35-3.67.62-.98.97-1.33,2.47-.63,3.66.4.68,1.06,1.34,1.76,1.7,1.05.55,2.04,1.18,2.99,1.84l-13.24,13.24v-5.65c0-3.93.01-7.87,0-11.8-.01-2-1.34-3.48-3.39-3.81-1.28-.2-2.35.24-3.32,1.01-5.42,4.31-10.84,8.62-16.3,12.9-.43.34-1.09.55-1.64.57-2.44.07-4.88-.02-7.31.05-4.08.12-7.43,3.24-7.49,7.11-.08,5.25-.08,10.51,0,15.77.06,3.87,3.41,6.98,7.48,7.12,1.45.05,2.92.17,4.35,0,1.46-.18,2.73,0,3.9.47l-13.68,13.68c-1.56,1.56-1.56,4.08,0,5.64.78.78,1.8,1.17,2.82,1.17s2.04-.39,2.82-1.17l14.56-14.56c3.46,2.8,7,5.51,10.49,8.28.97.77,2.04,1.22,3.32,1.02,2.11-.33,3.4-1.83,3.4-3.97,0-7.51,0-15.03,0-22.54l9.6-9.6c2.65,4.69,2.42,9.72-.73,14.36-1.15,1.69-.86,3.65.69,4.74,1.51,1.05,3.47.66,4.63-.95,2.49-3.44,3.71-7.29,3.77-11.53-.04-4.17-1.22-7.97-3.62-11.37l4.68-4.68c4.29,5.52,6.28,12.59,5.15,19.88-1.37,8.82-6.16,15.3-14.02,19.5-1.81.96-2.49,2.82-1.65,4.5.86,1.71,2.82,2.3,4.65,1.3,11.55-6.28,17.35-16.1,17.84-27.03,0-9.27-2.62-16.94-7.33-22.8l8.15-8.15c1.56-1.56,1.56-4.08,0-5.64Z"/>
      </g>
    </g>
  </g>
</svg>