<?xml version="1.0" encoding="UTF-8"?>
<svg id="_圖層_2" data-name="圖層 2" xmlns="http://www.w3.org/2000/svg" viewBox="0 0 57.15 76.97">
  <defs>
    <style>
      .cls-1 {
        fill: #80402b;
      }
    </style>
  </defs>
  <g id="_圖層_2-2" data-name="圖層 2">
    <path class="cls-1" d="m32.98,27.77c-.28-.75-.43-1.63-.87-2.3-3.83-5.83-3.04-12.23-2.13-18.53.68-4.71,5.98-7.82,10.66-6.71,1.81.43,2.36,1.8,1.94,3.33-.94,3.46-2.05,6.87-3.22,10.26-.59,1.73-1.49,3.34-2.17,5.04-.29.72-.38,1.53-.6,2.48,1.2-.17,2.11-.4,3.03-.42,1.23-.03,1.9-.62,2.52-1.65.58-.95,1.5-1.7,2.27-2.53.18.11.35.22.53.33-.11.71-.22,1.41-.36,2.29,2.46-.41,3.94-2.19,5.48-3.74,1.4-1.4,2.62-3.34,4.85-2.34,2.02.91,2.06,3.2,2.22,5.13.42,5.02-3.99,11.45-11.63,11.26-2.4-.06-4.84-.42-7.18-.08-1.43.21-2.71,1.48-4.05,2.27.06.22.13.44.19.66,2.93.13,5.88.53,8.77.28,1.69-.15,3.27-1.41,4.95-2.03.99-.37,2.2-.85,3.07-.56.62.21,1.23,1.63,1.18,2.48-.22,3.98-1.83,7.55-5.14,9.7-2.62,1.7-5.93,1.49-9.04.92-3.56-.65-6.78-2.02-9.64-5.03-1.52,2.8-2.9,5.35-4.32,7.97,4.22,1.94,8.56,2.09,12.88,1.29,1.36-.25,2.59-1.47,3.77-2.38,1.37-1.06,2.29-.83,2.72.83.98,3.79-2.96,12.26-6.66,13.39-4.57,1.4-9.24,1.4-13.6-1.07-.43-.24-.86-.49-1.23-.7-1.96,5.13-3.68,10.2-3.08,15.77.13,1.15-.6,2.4-.93,3.6-.26-.01-.51-.02-.77-.03-.21-.58-.57-1.16-.61-1.75-.15-2.33-.38-4.68-.25-7,.27-5.1.74-10.19,1.12-15.29.03-.42,0-.85,0-1.42-2.43-.32-4.85-.4-7.15-.99-6.2-1.59-12.35-6.92-9.99-15.13.4-1.38,1.88-2.57,3.11-3.51.34-.26,1.83.46,2.39,1.08,1.69,1.87,3.06,4.04,4.8,5.85,1.34,1.4,3.11,2.37,4.56,3.67,1.15,1.03,2.09,2.3,3.19,3.4.44.44,1.04.83,1.63.97.21.05.67-.72.9-1.18,1.14-2.3,2.23-4.63,3.51-7.29-1.73-.23-3.27-.35-4.77-.66-.79-.16-1.89-.46-2.21-1.04-1.12-2.02-2.52-4.13-2.77-6.32-.47-4.1-.22-8.29-.25-12.44,0-.37.15-.74.28-1.1.72-1.86,2.25-2.95,4.04-2.87,1.91.09,2.84,1.44,3.23,3,.54,2.14.8,4.35,1.11,6.53.3,2.19.55,4.39.73,6.6.04.52-.3,1.07-.47,1.6-.32-.46-.85-.88-.93-1.38-.56-3.29-1.03-6.6-1.52-9.9-.07-.5,0-1.08-.23-1.48-.31-.53-.83-1.25-1.32-1.3-.52-.05-1.52.5-1.59.93-.29,1.57-.67,3.29-.32,4.79.65,2.75,1.69,5.43,2.79,8.04.34.81,1.36,1.39,2.15,1.95.38.27,1.01.17,1.44.39,1.9.99,2.99.45,4.28-1.32,1.49-2.05,3.64-3.62,4.69-4.62Zm.57-7.75c2.02-4.99,4.06-10.03,6.13-15.15-3.41-.52-5.93,1.08-6.68,3.78-1.1,3.97-1.35,7.87.55,11.37Zm-10.4,30.39c-.8,1.54-.78,2.51.78,3.4,3.89,2.23,7.99,2.23,12.12,1.19,1.72-.43,2.7-1.98,3.35-3.88-5.69,1.91-11.03,2.04-16.24-.71ZM3.77,35.38c-.04,1.56-.65,3.38,0,4.32,1.46,2.12,3.37,4.06,5.45,5.56,1.24.9,3.18.83,4.73,1.19-3.36-3.65-6.56-7.13-10.18-11.07Zm38.56-10.58c2.79.31,5.66.56,8.06-.86,1.57-.93,2.69-2.72,3.81-4.26.28-.39-.19-1.34-.32-2.03-.56.14-1.35.09-1.63.45-2.57,3.3-5.92,5.38-9.91,6.7Zm5.05,12.4h-13.62c3.71,1.71,7.52,2.2,11.43,1.28.77-.18,1.42-.82,2.19-1.28Z"/>
  </g>
</svg>