<?xml version="1.0" encoding="UTF-8"?>
<svg id="_圖層_2" data-name="圖層 2" xmlns="http://www.w3.org/2000/svg" viewBox="0 0 56.3 73.06">
  <defs>
    <style>
      .cls-1 {
        fill: #80402b;
      }
    </style>
  </defs>
  <g id="_圖層_2-2" data-name="圖層 2">
    <path class="cls-1" d="m31.23,14.75c3.07-.19,6.2-.47,9.33-.55,3.31-.08,3.6.32,3.44,3.59-.3,6.19-.1,5.21-5.5,5.27-2.56.03-5.12,0-7.68,0-.15.67-.26.94-.26,1.22-.15,5.72-.31,11.43-.42,17.15-.07,3.73.01,7.46-.11,11.18-.04,1.3.42,1.38,1.53,1.37,1.85-.03,3.71.19,5.56.33,2.51.18,4.1,1.52,4.58,3.98.32,1.65,1.17,2.13,2.77,1.97,1.44-.14,2.91-.01,4.36.05,2.89.12,4.44,1.74,5.13,5.44.22,1.17.24,2.28,1.72,2.71.35.1.76,1.31.55,1.71-.55,1.65-1.39,1.99-2.15,1.78-.13.14-.84-.18-1.01-.21-2.79-.43-4.55-.47-5.79-.43-5.12.14-7.87.23-12.99.5-1.51.08-3.03.07-4.55.16-5.34.33-10.67.77-16.01,1.01-3.38.15-6.76.06-10.15.01-1.12-.02-2.69.16-3.24-.46-.6-.68-.27-2.19-.3-3.34-.03-1.07-.01-2.13,0-3.1,0-.41.25-.78.63-.95,1.76-.78,3.37-1.49,5.09-2.25v-3.58c.46-.13.99-.28,1.53-.43,0,.42-.04-.7-.02-1.13.01-.25.2-.46.45-.5.22-.03.5-.08.77-.15,2.97-.77,5.96-1.53,8.99-2,1.59-.24,2.44-.65,2.43-2.39-.07-8.87-.07-17.75-.14-26.62-.02-2.17-.42-2.63-2.55-2.51-4.01.24-8.01.62-11.99,1.12-1.23.15-1.84-.13-1.94-1.26-.2-2.26-.32-4.53-.44-6.8-.07-1.49.44-2.11,2.16-2.04,3.96.16,7.93.05,11.89-.06.41-.01,1.12-.78,1.14-1.23.12-2.62.05-5.25.12-7.87.03-1.17.11-2.38.48-3.48.19-.58.89-1.1,1.5-1.17C23.08.45,26.04.28,28.99.01c1.27-.12,1.39.61,1.44,1.62.23,4.38.53,8.76.8,13.11Zm-8.1-8.34c-1.01-.08-1.82.81-1.66,1.81.06.34.1.66.14.98.3,2.43.6,3.86.83,6.3.09.92-.1,1.77-1.35,1.81-3.72.11-7.44.27-11.16.37-1.66.05.67,0-1.18,0,.22,1.28.38,2.22.54,3.23.78-.06,1.41-.11,2.05-.16,4.19-.27,4.37-.59,8.56-.77,2.16-.09,2.83.47,3.16,2.63.25,1.6.19,3.26.16,4.89-.13,6.34-.31,12.67-.44,19.01-.05,2.54,0,3.07,0,5.65,1.3,0,2.16-.06,3.02.01,1.56.13,1.96-.58,1.61-2.75-.68-4.21-.11-4.12-.4-10.71-.25-5.67-.89-11.37.96-17.02.39-1.19.46-1.64,1.64-1.58.72.04,1.44.1,2.17.12,5.15.17,4.05.11,7.41.11-.07-1.14-.12-2.04-.19-3.18-1.85.13-1.69.13-3.69.13s-2.7.62-4.79.76c-1.12.07-1.68-.47-1.71-1.68-.07-3.03-.2-5.06-.39-8.09-.03-.51-.41-1.4-.73-1.44-1.47-.21-2.95-.33-4.54-.45ZM4.15,69.54c3.78,0,5.34.14,8.88-.03,6.09-.29,12.17-.77,18.25-1.18,3.6-.25,7.19-.62,10.79-.76,3.23-.13,6.48-.03,9.72-.03-.2-2.84-1.22-3.99-4.02-3.87-4.59.18-9.17.65-13.76.88-6.19.3-12.4.38-18.58.77-4.4.28-6.88.89-11.23,1.37-.17.02-.3.18-.28.34.09,1.05.16,1.78.22,2.51Zm3.95-7.14c10.58-.6,21.09-1.2,31.59-1.81l.28-.74c-.61-.62-1.13-1.4-1.86-1.78-.85-.44-1.9-.69-2.87-.7-4.93-.06-9.89-.32-14.78.09-4.3.36-8.54,1.53-12.85,2.35.2,1.05.35,1.89.49,2.59Z"/>
  </g>
</svg>