<?xml version="1.0" encoding="UTF-8"?>
<svg id="_圖層_2" data-name="圖層 2" xmlns="http://www.w3.org/2000/svg" viewBox="0 0 78 77.11">
  <defs>
    <style>
      .cls-1 {
        fill: #eedede;
      }
    </style>
  </defs>
  <g id="_圖層_2-2" data-name="圖層 2">
    <path class="cls-1" d="m77.84,45.53c-.53-2.2-2.16-.88-3.27-1.44.72-3.07,4.05-5.74,1.29-9.89-1.81,3.57-3.36,6.72-5.02,9.8-.34.64-1.07,1.02-1.62,1.52-.2-.12-.4-.25-.6-.37,1.21-8.48-3.17-15.14-5.89-22.57,2.05.71,3.78,1.42,5.56,1.86.72.18,1.57-.23,2.35-.37-.21-1.18-.29-2.42-.7-3.51-.17-.45-1.04-.59-1.61-.82-1.69-.67-3.39-1.31-5.47-2.11,1.09-.95,2.05-1.43,2.51-2.26.59-1.05,1.12-2.41,1.05-3.59-.08-1.45-1.35-1.7-2.44-.81-1.57,1.28-3.2,2.47-4.8,3.72-1.14.89-2.14.67-3.39.03-2.14-1.08-4.41-1.91-6.68-2.62-1.85-.57-3.77-.82-5.62-1.19-.69-3.86-1.31-7.39-1.94-10.92-.56.01-.41,0-.98.02-.33,2.38-.65,4.75-1.01,7.37-1.64-.4-3.26-.8-5.02-1.23-.16.62-.17,1.39-.51,1.86-.57.79-1.28,1.8-2.07,1.99-3.27.82-6.64,1.17-9.88,2.09-1.97.56-4.14.16-6.1-1.19,0,0-.81,0-.24.73.17.21.3.47.35.74.41,2.43-1.24,4.48-3.09,6.16-.58-1.47-1.05-2.72-1.58-3.95-.26-.61-.56-1.22-.96-1.72-.94-1.2-1.89-.99-2.12.58-.24,1.61-.47,3.39-.09,4.91.51,2.05.08,3.45-1.1,4.94-1.38,1.74-3.13,3.35-2.91,6.04.06.71.4,1.39.62,2.09.47-.43.99-.81,1.39-1.31,1.04-1.31,2.02-2.68,3.03-4.03.27.11.24.1.52.21-.23,1.56-.71,3.13-.67,4.68.1,4.69-2.09,7.14-5.88,8.54-1.73.64-3.74,1.52-3.14,4.46.13.64.1,1.32.15,1.99.63-.14,1.32-.13,1.87-.44,1.98-1.11,3.9-2.33,6.38-3.83-.51.95-.8,1.27-.86,1.65-.46,2.59-.91,5.18-1.3,7.78-.18,1.19-.27,2.41-.26,3.61,0,.41.42,1.05.74,1.14.33.09.91-.28,1.13-.64.42-.69.65-1.51,1.02-2.42.52,1.59.7,3.16,1.45,4.23,2.62,3.75,4.15,7.84,4.18,12.64,0,.61.78,1.21,1.2,1.81.49-.55,1.3-1.04,1.4-1.67.22-1.34.07-2.76.07-4.14,1.53.07,2.93,2.72,4.71.74,1.71-1.91-.36-3.34-.89-4.99,1.34-.49,2.57-.89,3.75-1.4,1.6-.69,1.5-2.23,1.16-3.64-.36-1.49-1.44-1.22-2.51-.97-1.86.44-3.73.97-5.61,1-.96.02-2.41-.67-2.82-1.53-1.11-2.28-1.77-4.82-2.78-7.75,2.72,0,5.01-.06,7.29.02,1.53.05,2.89-.24,2.88-2.25,0-1.9-1.3-2.46-2.84-2.44-1.32.02-2.64,0-4.41,0,.66-.94,1-1.38,1.29-1.85.88-1.42,1.91-2.78,2.53-4.33.31-.77-.17-1.93-.29-2.92-.71.43-1.57.72-2.12,1.34-1.23,1.38-2.32,2.93-3.69,4.71-.56-10.49,3-16.88,10.82-19.89.94,2.52,1.77,4.91,2.76,7.23.24.56.97.89,1.54,1.2.08.04.69-.61.67-.92-.14-3.04,1.42-2.6,3.12-1.97.77.28,1.59.43,2.35.75,1.72.72,2.31.3,2.36-1.7.04-1.65-.78-2.58-2.08-2.93-2.04-.54-4.11-.88-6.16-1.38-.58-.14-1.1-.53-1.65-.8l.15-.86c3.21-.33,6.42-.69,9.64-.98,1.08-.1,2.33-.59,2.86,1.2.06.21,1.11.37,1.42.12,2.71-2.15,5.51-1.36,8.36-.56,1.17.33,1.65.98,1.67,2.37.04,2.26.18,4.54.53,6.77.14.92.92,1.72,1.4,2.58.42-1.04.91-2.05,1.21-3.12.13-.44-.17-1.03-.22-1.55-.15-1.62-.28-3.25-.43-5.14.64.22.97.28,1.25.45,4.06,2.45,6.5,6.35,7.66,11.21,1.12,4.71.7,5.57-2.97,8.27-.45.33-.9.64-1.32.94.08.82.2,1.53.21,2.25,0,.58-.13,1.17-.2,1.75.63-.1,1.35-.02,1.87-.34,1.05-.63,2-1.47,2.99-2.23.24.15.26.16.5.3-.56,3.75-1.13,7.5-1.68,11.21-.94-.14-1.5-.22-2.31-.34.64,3.99-.85,6.55-3.76,8.18-.78.44-1.63.73-2.45,1.06-1.07.43-2.01,4.27-1.06,4.65,2.02.8,1.24,2.16.75,3.62.2.18.22.19.43.37,1.83-.9,3.66-1.8,5.69-2.8.79,2.59,1.49,5.04,2.31,7.43.18.52.78.86,1.18,1.28.36-.5.92-.94,1.04-1.5.16-.78.13-1.68-.05-2.46-.4-1.68-.86-3.35-1.45-4.96-.45-1.21-.27-1.91.56-2.94,2.14-2.69,4.74-3.53,7.8-3.28,1.2.1,2.55.16,2.52-1.68-.03-1.67-.65-3.04-2.61-2.8-.89.11-1.81-.13-2.7-.21.19-2.06.24-3.89.58-5.65.12-.63.84-1.46,1.4-1.58,2.19-.47,4.44-.66,6.65-1.03,1.72-.29,2.26-1.59,1.8-3.49Zm-18.03-24.26c-.08-.08-7.75-8.44-26.83-7.42-.92.05-1.86.23-2.7.39-2.19.42-4.25,1.03-6.14,1.82-2.64,1.1-4.82,2.52-6.48,4.2-.93.94-1.75,2.07-2.38,3.26l-.08.14c-.27.52-.52,1-.86,1.49-.49.73-.85,1.46-1.13,2.3-.75,2.28-1.04,4.67-1.22,6.71-.09,1.08-.16,2.22-.2,3.4-.01.34-.01.68-.01,1.02,0,.73,0,1.48-.11,2.21-.47,3.18-.54,5.69-.24,8.13.41,3.3,1.43,6.36,3.02,9.08.77,1.32,1.69,2.58,2.73,3.73l-.33.37c-.08-.06-8.1-6.17-7.1-16.15.32-3.14.32-6.04.33-8.83.01-5.99.02-11.17,3.17-16.05.06-.11,1.71-2.84,5.98-5.36,3.92-2.31,10.88-4.85,21.8-3.82.63.08,15.18,2.09,19.19,9.08l1.2,2.1-1.61-1.81Z"/>
  </g>
</svg>