<?xml version="1.0" encoding="UTF-8"?>
<svg id="_圖層_2" data-name="圖層 2" xmlns="http://www.w3.org/2000/svg" viewBox="0 0 103.96 128.47">
  <defs>
    <style>
      .cls-1 {
        fill: #040000;
      }
    </style>
  </defs>
  <g id="_圖層_2-2" data-name="圖層 2">
    <g>
      <path class="cls-1" d="m50.26,1.8s.43,1.5-.41,2.56c-.83,1.04-4.9.86-4.9.86l-.26,2.21s-1.78,22.78-2.02,23.6c-.26.83-.18,8.3-.07,8.6.12.3,1.56,13.54,1.56,13.54,0,0-.39,20.75-.49,21.06-.07.3-.21,3-1,3.06-.8.05-1.28-11.01-1.28-11.01,0,0-.68-11.73-1.11-13.92-.05-.3-2.74-19.94-2.74-19.94l.17-27.46s-5.1.47-5.66-.5c-.55-.95-.38-2.71-.38-2.71,0,0,3.56-1.54,8.65-1.73,6.18-.22,9.94,1.78,9.94,1.78Z"/>
      <path class="cls-1" d="m75.59,28.08s-.88.94-.67,2.04c.22,1.11,3.31,2.54,3.31,2.54l-.65,1.75s-7.49,17.6-7.61,18.3c-.13.7-3.07,6.24-3.26,6.41-.21.17-6.38,9.44-6.38,9.44,0,0-7.71,15.59-7.78,15.83-.05.27-1.01,2.31-.43,2.67.58.34,5.2-7.69,5.2-7.69,0,0,5.03-8.44,6.2-9.91.14-.2,9.73-13.74,9.73-13.74l10.48-20.47s3.6,2.32,4.39,1.83c.78-.5,1.32-1.87,1.32-1.87,0,0-2.04-2.51-5.75-4.63-4.49-2.53-8.07-2.5-8.07-2.5Z"/>
      <g>
        <path class="cls-1" d="m91.19,90.69l-.99-.48.91-5.58.55-6.19.43-2.31s-.39-1.59-.14-1.78c.26-.19,12,.84,12,.84l-12.15-2.67s-.29-4.1-.55-5.49c-.25-1.36-1-3.7-1-3.7l-1.31-2.04-1.45.25.64.89s1.1,1.72,1.17,1.98c.07.25.81,3.39.74,3.87-.07.47.29,3.95.29,3.95,0,0-.08.45-.21.89-.15.45.19,1.42.07,1.9-.12.48,0,1.89-.04,2.23-.03.34-.11,1.53-.11,1.83,0,.31-.25,4.06-.25,4.06,0,0-.55,3.87-.62,4.62-.07.75-.59,3.54-.59,3.54,0,0-.81,2.39-1.14,3.54-.32,1.15-1.32,4.06-1.75,4.91-.45.86-2.21,3.65-2.46,4.21-.25.56-2.39,2.23-2.75,2.42-.37.19-.77,1.23-.77,1.23,0,0-.59.48-.92.83-.32.33-.58.89-.92,1.25-.33.39-2.53,2.76-4.03,3.67-1.51.89-3.9,2.01-4.49,2.12-.58.11-2.7.67-3.37.56-.65-.11-2.16-.16-2.2-.27-.02-.11-.32-.11-.88-.19-.54-.08-.54.19-.54.19,0,0-.25-.03-.95-.19-.7-.14-4.59-1.37-4.59-1.37l-1.78.81s2,.86,2.55,1.04c.55.19,3.96,1.23,3.96,1.23,0,0,1.84.56,2.13.56s.82-.11.82-.11c0,0,.43.36.7.81.25.45.58,3.06.58,3.06l.66,3.95.73,2.23-.44-8-.07-2.28s1.99-.33,2.82-.56c.85-.22,3.23-1.26,4.66-2.01,1.44-.73,3.56-2.78,4.34-3.54.76-.73,2.41-2.64,2.41-2.64,0,0-.29-.52-.55-.86-.26-.33-.14-.78-.14-.78,0,0,.24.41.41.7.14.3.54.97,1.43,1.53.88.56,1.9.48,1.9.48,0,0-1.8-1.67-1.65-2.68,1.45-1.15,2.71-3.04,3.23-3.95.51-.89,2.2-4.4,2.2-4.4l1.43-4.06.75-2.75,6.48,1.64,5.83,1.15-2.01-.91-8.99-3.2Z"/>
        <path class="cls-1" d="m40.7,45.09s1.18-.78,1.99-.98c.59-.14,2.05-.84,2.45-.78.26.05.99-.47,1.25-.48.1,0,1.03-.39,1.4-.64.36-.25.97-.25.97-.25,0,0,1.13-.3,1.3-.42.18-.11.73-.44,1.02-.36.29.11.74-.05.89-.09.14-.06.76-.37.96-.22.19.16,1.17.19,1.73.06.57-.12,1.85-.36,1.85-.36.37-.02,1.98.22,2.46.17.49-.05,3.14.36,3.57.47.45.13,1.74.45,1.74.45,0,0,1.41,1,1.75,1.17.34.17,3.23,2.18,3.23,2.18l4.06,3.2,4.87,4.07s1.37,1.4,1.66,1.65c.29.23,1.98,1.58,1.98,1.58l2.71,2.59s1.65,1.73,1.78,1.89c.15.14.27.27.27.27l1.54-.3s-2.22-2.23-2.93-3.15c-.71-.92-3.08-3-3.08-3l-4.4-3.95-4.47-3.65s-4.24-3.06-4.58-3.25c-.33-.17-2.15-1.43-2.27-1.53-.14-.11-1.3-1.28-1.3-1.28,0,0-.9-.44-1.1-.36-.19.08-.83.22-.83.22,0,0-1.32-.25-1.86-.25s-4.33-.14-4.6-.17c-.27-.03-.99-.11-1.06-.11s-.96-.47-1.43-.41c-.46.05-1.15.25-1.36.52-.13.17-.5.44-.57.44-.09,0-.74.31-.91.34-.17.02-1.25.02-1.47.14-.23.11-1.06.45-1.21.48-.14.02-.08-2.56-.08-2.56l-.5,2.37s-.12.55-.3.61c-.19.08-.8.5-.9.65-.11.14-.64.34-.64.34,0,0-1.15.28-1.63.41-.49.12-1.67.39-1.89.42-.22.02-.93.16-1.25.31-.31.19-.72.37-.72.37l-.11,1.15Z"/>
        <path class="cls-1" d="m38.69,46.54l-.48-.11s-.23.11-.46.2c-.21.09-.65.48-.65.48l-1.17.41s2.15.23,2.74.51c.58.28,5.21,2.34,5.95,2.85.76.5.89,1.39,1.02,1.58.12.19.55.5.69.42.16-.09.57-.42.7-.53.12-.11.37-.14.49-.11.19.06.45.17.55.58.16.66.13,1.83.76,6.13.62,4.27,2.04,6.38,2.04,6.38,0,0-.74-2.75-.97-4.62-.21-1.86-.38-4.23-.21-5.73.16-1.51.44-2.03.59-2.09.15-.05,1.32,0,1.76.14.43.14,3.79.83,4.49,1.09.69.3,4.13,1.25,4.2,1.25.07,0,1.18.41,1.45.48.25.11,1.2.44,1.2.44l-.41-.59-.52-.17s-1.85-.41-2.2-.62c-.34-.2-1.22-1.06-1.22-1.06,0,0-.25-.19-.53-.23-.27-.08-1.7-.51-1.95-.58-.26-.05-1.36-.41-1.87-.55-.52-.16-2.16-.67-2.47-.73-.33-.08-1.84-.31-2.31-.37-.45-.05-2.03-.56-2.32-.65-.27-.12-1.55-.78-1.74-.87-.18-.09-1.41-.62-1.41-.62,0,0-1.86-1.06-2.34-1.26-.48-.22-1.98-.9-1.98-.9l.83-6.37-1.02,2.84-.88,2.32-.33.67Z"/>
        <path class="cls-1" d="m80.89,61.27c-.32.03-1.08.42-1.08.42l-2.23-3.2-1.63-1.81-2.35-2.09s-.39-.62-.66-.73c-.28-.12-.73-.12-.73-.12l-.49-.37,1.07-2.34.84-2.15-.83-.58s-.64,1.47-.91,1.92c-.27.44-.76,1.26-1.01,1.48-.24.23-.73.97-.73.97l-3.69-1.64s-.38-.42-.64-.41c-.27.03-1.61-.34-1.61-.34l-3.5-.64-1.89-.33-1.6-.09-1.91-.05-1.57.14,2.23.94h.46l.83-.53s.44-.03.67.19c.25.23.14.3.14.3,0,0-.14-.14-.42-.23-.29-.09-.51.02-.51.02,0,0-.66.45-.86.55-.19.09-.78.3-1.07.45-.3.14-1.31.33-1.31.33,0,0,1.24.08,1.76.19.51.14.7.05,1.26-.25.57-.3,1.08-.53,1.08-.53,0,0,2.06.05,2.52.09.46.05,1.76.14,2.2.23.44.11,1.63.5,1.63.5l2.62,1.14c.09.05,1.62,1.08,1.62,1.08l.19.28s-.62.41-.75.52c-.15.11-.02.5.18.5.19,0,.99-.19,1.41-.03.42.17,2.52,1.79,3.16,2.25.64.45,1.31,1.19,1.31,1.19,0,0,1.82,1.34,2.29,1.69.47.36.94.73.94.73l.53.31s-1.24-1.62-1.57-2.04c-.31-.39-1.22-1.4-1.57-1.75-.34-.36-.95-1-1.24-1.22-.28-.23-1.17-.83-1.29-.9-.12-.08-1.13-1.44-1.31-1.68-.16-.25-.53-.55-.53-.55,0,0,.37.08.68.48.32.44.66.98.98,1.28.32.3,1.24.9,1.64,1.2.39.3,2.38,2.34,2.79,2.76.42.45,1.51,2.36,1.64,2.57.13.22.93,1.68,1.14,2.06.22.37.84,1.76.84,1.76l.28,2.09s.18,2.59.25,2.85c.08.23.08,1.69.08,1.69l-.21.83s-.7,1.33-.9,1.98c-.18.69-.16.94-.16.94,0,0-1.01,1.29-1.35,1.9-.34.62-.88,1.75-.88,1.75,0,0,.8-.52,1.24-1.17.44-.64,1.03-1.53,1.03-1.53,0,0,.68-.45,1-.42.33.02.69.17.69.17,0,0-.64-.7-.59-1.22.04-.52.42-1.36.42-1.36,0,0,.22-.45.17-.62-.05-.19-.44-.51-.44-.51,0,0,.3-.08.5.14.19.22.14.52.07.97-.07.45-.39.69-.46,1.09-.08.39.53,1.67.53,1.67,0,0,.05.81.14,1.08.11.28.32,1.58.42,1.9.1.31.17,1.44.19,1.56.04.12.02.72.02.72,0,0,.16-1.14.25-1.56.1-.44.1-1.54.16-1.84.05-.3.02-.84.02-.84,0,0-.49-2.34-.53-2.89-.06-.55-.07-2.64-.1-3.14-.02-.48-.36-2.18-.27-2.65.09-.44-.02-2.11-.11-2.59.08-.3.18-.61.28-.72.21-.22.68-.75.68-.75l.48-.39-.78-.69s-.52.22-.64.31c-.07.06-.23.08-.4.06-.21-.27-.4-.58-.38-.67.02-.23.51-.53.95-.7.44-.17,4.91-1.17,4.91-1.17,0,0,3.12-.55,4.26-.8,1.39-.3,4.57-1.56,4.57-1.56l-8.27,1.42s-5.97.7-6.28.78Z"/>
        <path class="cls-1" d="m98.38,73.78s1.48-.25,1.69-.3c.23-.05,1.4-.37,1.4-.37,0,0-3.57-.03-3.89-.03-.34,0-2.25-.05-2.25-.05l3.04.75Z"/>
        <path class="cls-1" d="m87.89,72.97c-.44.06-1.61,0-1.61,0,0,0-1.29-.2-1.65-.09-.37.12-.96.23-1.14.12-.18-.12-.76-1.79-.92-2.01-.15-.23-.66-1.44-.66-1.44,0,0,.21,1.39.24,1.73.04.33-.02,1.59-.02,1.59,0,0,.19,1.68.26,2.01.07.36.36,1.76.44,2.11.07.33-.19,1.67-.15,1.86.05.19-.21,1.45-.18,1.72.04.25-.18,1.06-.25,1.33-.09.27-.87,2.4-.87,2.4l-.65,1.22-.39.55s.83.84,1.04,1c.22.16.53.3.53.3,0,0,1.51-4.26,1.65-4.85.15-.61.48-2.82.51-3.28.03-.44.19-1.2.22-1.39.04-.19.31-1.03.27-1.22-.02-.17-.52-.97-.52-1.29s.34-.62.64-.58c.29.03,2-.34,2.73-.37.73-.03,2.52-.11,2.52-.11,0,0-.15-.37-.15-.64v-.65s-1.45-.09-1.89,0Z"/>
        <path class="cls-1" d="m62.52,55.15c-.18-.16-.58-.78-.71-.8-.13-.03-.55-.23-.8-.36-.24-.12-.8-.45-1.14-.59-.35-.16-1.27-.73-1.39-.76-.13-.05.66.94.93,1.19.27.25.77.89,1.14,1,.37.09,2.06.59,2.26.64.19.05.7.33.9.44.19.14.38.55.54.69.14.13.51.17.83.13.32-.05,1.81.45,2.17.53.38.06,2.23.64,2.57.76.34.11,1.59.72,1.95.87.38.14,1.77.83,2.16,1.11.39.27,2.06,1.7,2.42,2.11.37.41,1.42,1.98,1.69,2.31.27.34.73,1.22.77,1.39.05.19.87,1.59.87,1.59l.55,1.17-.46-3.67s-1.58-2.82-1.78-3.06c-.19-.25-.3-.5-.3-.5,0,0-1.81-1.34-2.16-1.54-.38-.2-1.55-1.14-1.55-1.14,0,0-2.59-1.4-2.93-1.58-.34-.14-3.35-1.28-3.69-1.37-.33-.11-1.83-.69-2.08-.73-.25-.05-2-1.03-2.23-1.11-.22-.08-3.94-2.09-4.13-2.21-.19-.12-.98-.44-1.1-.45-.12-.02-.19-.16-.19-.16,0,0-.91.53-1.15.61-.23.06-.48.23-.48.23,0,0,.99.39,1.36.53.37.16.88.36.88.36,0,0-.42-.48-.36-.64.05-.14.29.09.73.36.45.28,1.22.7,1.22.7,0,0,1.3.67,1.52.81.21.14.51.12.65.33.15.2.79.94.79.94,0,0-.1.03-.27-.11Z"/>
        <polygon class="cls-1" points="76.63 57.24 78.75 55.17 76.19 56.71 76.63 57.24"/>
        <path class="cls-1" d="m60.42,52.25s.31-.09.51-.13c.2-.02,1.24-.03,2.27.03,1.02.08,3.19.56,3.19.56,0,0-.25-.14-.4-.22-.15-.08-1.22-.51-1.51-.67-.29-.14-1.57-.53-1.57-.53,0,0-.35.05-.76.09-.42.05-1.04-.06-1.53-.05-.5.03-1.74-.02-1.74-.02l1.54.92Z"/>
        <path class="cls-1" d="m68.89,49.5c0-.19-.21-.36-.41-.41-.19-.05-.8-.11-.96-.08-.18.03-.76.4-.9.56-.12.16.03.37.18.55.14.17.32.47.41.62.13.22.28.45.28.45,0,0,.74.22,1.08.37.34.14,1.1.55,1.1.55l.32-.08s-.64-.97-.73-1.26c-.1-.3-.36-1.08-.36-1.28Z"/>
        <path class="cls-1" d="m72.16,57.43l.49.28-.37-.66s-.68-.44-.97-.7c-.3-.23-.87-.69-1.08-.76-.23-.08-.73-.44-.81-.42,0,0-.18.33-.18.42,0,.11.23.72.23.72,0,0,1.07.45,1.51.59.44.16,1.18.53,1.18.53Z"/>
        <path class="cls-1" d="m78.59,72.22c.1.33.6,2.54.6,2.54,0,0,.45-1.09.54-1.47.1-.37.37-.86.37-.86l.34-.83s-.45-1.39-.6-1.7c-.14-.3-1.09-2.28-1.09-2.28,0,0-1.94-3.1-2.31-3.4-.36-.3-1.22-1.72-1.44-2.06-.22-.34-.91-1.76-.91-1.76,0,0-2.12-1.17-2.49-1.37-.37-.2-1.57-.61-1.57-.61,0,0,2.96,3.93,3.28,4.38.32.45,2.21,3.6,2.59,4.15.39.55,1.4,2.5,1.64,2.93.25.44.95,2.01,1.06,2.33Z"/>
        <path class="cls-1" d="m45.34,45.56c.2-.05.34.65.42.8.08.14.56.09.86-.14.28-.27.61-.41.74-.62.12-.23-.37-.62-.18-.94.19-.28,1.17-.56,1.61-.73.45-.17,2.08-.81,3.18-.92,1.1-.09,3.26.3,3.26.3,0,0,.27.34.52.45.25.09.81-.2,1.06-.23.24-.02.69.19,1.16.33.48.16,2.01.87,3.14,1.19,1.12.33,4.05,1.83,4.62,2.04.55.23,1.4,1.83,1.4,1.83,0,0,.39-.17.54-.17.14,0,.5,0,.78.03.27.03.52.27.58.45.07.19.25,1.05.4,1.36.15.33.76,1.4.76,1.4l.66-.62-1.29-1.98-2.29-3.56s-.5-.25-.82-.31c-.32-.09-.66-.58-.61-.87.05-.31.54-1.29.54-1.29l-.58-.28c-.17.41-.79,1.69-.95,1.67-.16-.03-2.27-.7-2.75-.8-.49-.09-2.66-1-2.98-1.08-.32-.06-1.1-.69-1.51-.78-.42-.11-1.26-.75-1.48-.92-.22-.19-.4.09-.7.17-.3.08-1.51.12-1.86.11-.34-.03-.83-.22-1.19-.17-.34.06-.95.31-1.21.28-.28-.02-.57.03-.96.22-.38.2-1.24.53-1.51.58-.28.05-.89.12-1.18.31-.29.16-1.66.87-1.89.92-.21.06-.63.16-1.22.33-.6.17-1.4.48-1.93.67-.54.2-1.81.92-1.81.92l-.11.87s.4-.11.72-.25c.31-.16,1.27-.28,1.38-.28.09,0,.56.41.8.81.25.39.55,2,.55,2l1.14.56s-.37-2.46-.37-2.81.39-.78.58-.83Z"/>
        <path class="cls-1" d="m67.08,41.2c.04-.19.52-1.33.74-2.32.22-1,.32-2.25.32-2.25,0,0-.37,1-.66,1.97-.3.97-.94,2.64-.94,2.64l.37.45s.15-.27.17-.48Z"/>
        <path class="cls-1" d="m50.41,40.14s-.17-1.65-.2-2.09c-.03-.62-.41-2.98-.41-2.98,0,0-.11,1.42-.18,2.22-.07.8-.12,3.15-.12,3.15,0,0,.37-.2.48-.25.14-.06.43-.05.43-.05Z"/>
        <path class="cls-1" d="m56.88,48.91s.24.08.54.08,1.39.06,1.39.06c0,0-.7-.22-.87-.3-.16-.06-.99-.61-1.24-.87-.25-.25-1.96-1.64-2.3-1.86-.35-.22-3.18-1.78-3.5-1.89-.32-.09-.37-.5-.37-.56,0,0-.63.17-.86.28-.25.09-.73.28-.73.28,0,0,.44.11.76.17.32.08,2.08,1.15,2.48,1.28.39.11,2.05,1.23,2.56,1.58.51.36,2.14,1.75,2.14,1.75Z"/>
        <path class="cls-1" d="m47.21,50.28s.58-.14.78-.14c.18,0,.93-.08,1.37.02.45.08,2.01.13,2.01.13,0,0-.32-.3-.47-.45-.14-.14-.44-.14-.63-.28-.19-.16-.57-.76-.57-.76,0,0-.43.05-.68.05s-.23-.36-.25-.56c-.03-.2-.11-4.01-.11-4.01l-.66.2s.02.72,0,1.14c-.03.42-.2,3.15-.2,3.15,0,0-.35.16-.48.3-.12.11-.48.23-.81.34-.34.14-.84.11-.84.11,0,0,.71.3.88.37.18.08.67.41.67.41Z"/>
        <path class="cls-1" d="m61.29,51.19c.21.02.5.05.5.05l-.37-.3-1.37-.05.51.31s.55-.03.73-.02Z"/>
        <path class="cls-1" d="m64.21,54.23c.1.02.98.47.98.47,0,0-.9-.73-1.19-.95-.3-.23-.82-.78-.87-.86-.05-.09-.44-.58-.44-.58l-.83-.05s.93,1.06,1.13,1.23c.19.19.16.19.16.19,0,0,.96.52,1.06.55Z"/>
        <path class="cls-1" d="m52.21,51.48l.91-.22s.71.75,1.03.86c.31.14,1.81.31,2.03.34.22.02.92.05.92.05,0,0-1.1-.48-1.26-.55-.17-.08-.38-.33-.38-.33,0,0-1.29-.08-1.52-.16-.22-.06-.25-.34-.25-.34l.34-.22s-1.39-.9-1.67-1.08c-.27-.17-3.36-2.23-3.36-2.23,0,0,1.2,1.25,1.44,1.5.24.22,1.49,1.25,1.49,1.25,0,0,.62.52.57.66-.05.16-.3.47-.3.47Z"/>
        <path class="cls-1" d="m52.35,49.52c.28.19,1.34.83,1.59.97.24.16.48.41.48.41,0,0,.29-.06.52-.16.21-.11.76-.31.76-.31l-.89-.4s-1.3-.53-1.74-.69c-.57-.2-2.32-.8-2.32-.8,0,0,1.3.81,1.6.98Z"/>
        <path class="cls-1" d="m50.21,51.16s.76-.16,1.01-.19c.24-.03.93-.22.93-.22l-.38-.3s-.59.05-.87.06c-.3.03-1.05-.09-1.3-.11-.24-.05-.72-.11-.72-.11,0,0-.56.17-.73.2-.14.02-.36.06-.36.06,0,0,1.25.37,1.62.45.36.06.8.14.8.14Z"/>
        <path class="cls-1" d="m45.71,55.49s-.12-1.79-.12-2.06-.27-.97-.27-.97c0,0-.34-.7-.45-.87-.1-.17-.32-.36-.32-.36,0,0-.03.62.02.84.04.23.23,1.15.33,1.47.11.33.81,1.95.81,1.95Z"/>
        <path class="cls-1" d="m34.76,48.04l-.98.52s.95,1.92,1.14,2.45c.19.52.74,1.89.88,2.23.16.34.57,1.2.44,1.4-.12.23-1.19.78-1.61,1.06-.42.27-1.85,1.44-2.14,1.68-.3.23-1.52,1.78-1.72,2-.19.23-.57.62-.57.62,0,0-.65,1.23-.77,1.62-.13.39-.53,1.4-.53,1.4,0,0,.19.14.39-.09.19-.22.58-.95.78-1.25.19-.28,1.15-1.59,1.75-2.26.62-.64,2.7-2.18,3.04-2.46.34-.28,3.23-2.25,3.76-2.56.55-.33,1.85-.92,2.32-1.05.45-.12,2.36-.75,2.73-.83.37-.06.69-.14.69-.14,0,0-.03-.31-.08-.59-.02-.12,0-.53,0-.53,0,0-1.74.36-2.08.44-.34.11-1.18.41-1.34.42-.18.03-.82-.16-1.01-.14-.18.03-1.27.9-1.49.98-.22.12-.44.22-.62-.03-.17-.27-1.1-1.4-1.69-2.46-.58-1.08-1.28-2.43-1.28-2.43Z"/>
        <path class="cls-1" d="m32.52,45.73s.21-.03.44-.08c.33-.06.58-.08.58-.08l-.2-.36-2.77-4.12s.78,1.97.9,2.32c.12.36,1.05,2.31,1.05,2.31Z"/>
        <path class="cls-1" d="m21.48,51.73c-.25.3-.57.98-.73,1.17-.14.2-.64.86-.64.86l.77.41.58.33s.69-.56.73-.76c.05-.22-.06-1.06.37-1.22.44-.19,1.06-.37,1.06-.37,0,0,.99-.9,1.51-1.39.5-.5,3.1-2.34,3.43-2.42.32-.06,2.78-.75,3.42-.87.64-.12,1.05-.09,1.05-.09l2.06-1.39s-1-.09-1.25-.12c-.24-.02-.92.08-1.22.12-.29.05-1.86.37-2.18.41-.32.02-2.47.69-2.96.98-.48.3-1.98,1.34-2.25,1.51-.27.17-2.25,1.68-2.41,1.86-.13.14-1.12.7-1.35,1Z"/>
        <path class="cls-1" d="m29.46,48.47c-.15.09-1.16.86-1.46,1.03-.3.17-3.29,2.43-3.42,2.56-.16.12-.69.45-.69.45,0,0-.24-.14-.44-.09-.19.05-.72.19-.82.37-.09.17-.11.62-.11.72,0,.11,0,.42-.12.55-.12.14-.55.45-.55.45l.67.34s1.53-.97,1.86-1.22c.32-.25,2.17-1.54,2.5-1.83.32-.28,1.94-1.45,2.14-1.64.27-.28,1.47-.95,1.7-1.12.21-.19,2.04-1.37,2.04-1.37,0,0-.34.02-.56.02s-1.07.3-1.32.33c-.25.02-1.25.34-1.4.45Z"/>
        <path class="cls-1" d="m28.42,46.65s.36-.2.51-.2.62-.14.62-.14c0,0-1.04-1.76-1.48-2.26-.44-.5-1.57-1.93-1.57-1.93,0,0,.88,2.54,1.07,2.85.2.3.84,1.69.84,1.69Z"/>
        <path class="cls-1" d="m21.26,51.58l.53-.47s-.8-1.08-1.13-1.37c-.33-.28-1.73-1.79-1.73-1.79,0,0,1.28,2.32,1.46,2.59.18.28.87,1.05.87,1.05Z"/>
        <path class="cls-1" d="m17.39,53.81c.2.22,1.08.69,1.38.89.29.19.75.8,1.02,1,.27.19.69.62.69.72,0,.06-.99,1.23-1.13,1.59-.15.34-1.49,1.93-1.61,2.15-.13.23-.53.67-.45.75.07.08.32.27.31.61-.03.31-.15.47-.15.47,0,0,.83-.72,1.08-1.05.25-.33,1.91-2.37,2.23-2.67.31-.3,1.32-1.2,1.32-1.2l.23-.27c.85-.67,4.16-3.21,4.51-3.45.39-.27.98-.7.98-.7,0,0,2.69-2.2,3.14-2.48.48-.28,3.06-2.08,3.06-2.08,0,0,1.24-.7,1.59-.83.34-.12,1.13-.39,1.44-.5.21-.23,1.26-.78,1.35-.78.1,0,.37-.09.37-.09l.51-1.44v-.02l-.18.14-.57-7.58-.46,6.4s-.1,1.25-.18,1.58c-.08.33-.29.28-.29.28,0,0-.54.14-.93.3-.39.14-3.62,2.23-3.62,2.23l-3.87,2.64-3.48,2.57s-2.8,1.95-2.95,2.04c-.04.03-.13.09-.22.16-.31-.12-.85-.36-1.03-.45-.28-.13-3.17-1.62-3.44-1.75-.26-.11-3.05-1.7-3.25-1.83-.2-.14-1.81-.87-1.81-.87,0,0,2.08,1.72,2.3,1.92.22.19,1.91,1.36,2.1,1.59Z"/>
        <path class="cls-1" d="m18.49,58.69c.28-.45.69-1.17.88-1.42.19-.25.83-.95.83-.95l-.34-.28-.37-.39s-.23.61-.37.8c-.15.22-.82,1.28-.9,1.45-.1.17-1.13,1.65-1.13,1.65l-.09,1.05s.32-.2.46-.37c.15-.16.78-1.09,1.05-1.53Z"/>
        <path class="cls-1" d="m17.62,62.08c-.12.09-.48.36-.5.59-.03.2-.39,1.05-.32,1.14.04.09.1.59.17.81.07.23.19.62.19.62,0,0,.26-.86.46-1.5.24-.65.71-1.68.78-1.76.03-.06.9-1.75.9-1.75,0,0-.67.86-.81,1.06-.16.19-.75.72-.87.78Z"/>
        <path class="cls-1" d="m11.37,72.31c-.29.09-.93.31-.93.31,0,0,.88.66.9.95.03.3-.02,1.01-.04,1.15-.03.12-.16,1.87-.12,2.11.02.27-.03,2.03,0,2.2.02.16-.15,2.48-.1,2.68.05.2-.2,1.23-.17,1.58.02.36-.22,1.22-.16,1.53.05.28-.26,2.03-.37,2.45-.13.42-.5,1.9-.56,2.01-.08.09-.77.16-.74.37.02.23,0,.87.23,1,.25.11.55.28.56.55.03.23.5,2.08.55,2.43.04.34.37,1.47.41,1.58.05.12.15.55.15.62s1.44.12,1.44.12c0,0-.05-.39-.07-.67-.02-.28-.07-.59-.19-.64-.12-.05-.41-1.09-.48-1.42-.08-.31-.48-2.32-.55-2.57-.07-.27.18-2.17.21-2.62.05-.44.35-1.78.6-2.4.24-.62.64-.69.64-.86s-.37-.62-.44-.94c-.08-.3.67-.45,1.12-.56.43-.12,2.8.06,3.21.11.42.06,3,.05,3,.05,0,0-2.05-.52-2.44-.59-.44-.11-2.89-.36-3.11-.45-.22-.11-1.61-.08-1.63-.37-.03-.3.17-2.39.17-2.65,0-.28-.04-1.79-.04-1.93,0-.12.35-1.4.4-1.73.06-.31.29-.76.27-.84-.03-.06-.1-1.53-.1-2.04,0-.48.62-1.78.91-2.36.3-.56.98-1.84,1.15-2.15.17-.33.58-.9.84-1.22.34-.48.92-.47.92-.47,0,0,.16-.61.14-.92-.03-.33-.3-1.53-.35-1.72-.09-.39.28-1.37.36-1.54.07-.19.42-.58.39-.8-.02-.19-.04-.4-.13-.5-.09-.06-.28-.12-.36-.19-.09-.06-.11-.2-.11-.34,0-.16.16-.92.13-1.04-.02-.13-.16-.33-.35-.25-.21.06-.43.14-.51.28.03.23-.06,1.09-.09,1.4-.02.33-.58,1.9-.66,2.14-.08.22-.37,2.09-.39,2.23-.03.16-.7,1.5-.83,1.76-.12.28-1.12,2.34-1.19,2.7-.08.39-.74,1.48-.83,1.73-.1.25-.36.64-.66.75Z"/>
        <path class="cls-1" d="m15.62,60.78c-.11.16-.4.45-.52.61-.13.14-.39.61-.34.72.04.09.38.62.38.8s.25-.56.3-.75c.05-.2.12-.53.18-.62.04-.09.19-.64.19-.64,0,0-.11-.25-.19-.11Z"/>
        <path class="cls-1" d="m12.66,77.71c0,.19-.01.3-.01.3l.57-.05s.31-1.89.31-2.11c0-.23.4-2.56.58-2.95.16-.41.95-2.32,1.17-2.79.22-.45.61-1.64.75-1.86.15-.23.62-1.36.62-1.36,0,0-.52.27-.66.47-.15.19-.99,1.39-1.22,1.89-.23.48-1.05,1.86-1.2,2.36-.14.5-.4,1.08-.4,1.26,0,.2.14,1.68.14,1.93,0,.23-.28,1.26-.4,1.54-.13.28-.25,1.15-.25,1.36Z"/>
        <path class="cls-1" d="m13.54,77.96l1.43-.06s.34-1.08.46-1.29c.12-.23.42-.59.6-.75.2-.16.33-1.14.33-1.34s-.42-.28-.52-.44c-.1-.19-.3-1.03-.27-1.47.02-.45-.07-2.39-.07-2.39,0,0-.55,1.22-.67,1.51-.12.3-.72,1.81-.72,1.81,0,0-.1.81-.08.98.02.19.02.33.02.61,0,.27-.32,1.73-.35,2.01-.02.27-.17.81-.17.81Z"/>
        <path class="cls-1" d="m10.9,78.78c0-.12.02-.36.02-.36l-2.51.45,2.56.25s-.07-.25-.07-.34Z"/>
        <path class="cls-1" d="m19.51,82.08c0,.41.27,2.09.35,2.96.07.87.15,3.03.24,3.42.1.4-.7.72-.92.9-.22.17-.03.61.1.7.13.09.37-.12.59-.12s.24.44.39.73c.15.3.36,1.45.38,1.61.02.16.57.56.64.81.07.23.42,1.59.55,2.64.12,1.03.63,2.25.75,2.48.13.22.92,1.65,1.14,2.03.19.37.9,1.68.9,1.68,0,0,.19-.08.27-.2.07-.11.27-.28.27-.28,0,0-.69-1.25-.9-1.5-.22-.25-.8-1.51-1.03-2.18-.24-.67-.66-2.39-.83-3.01-.18-.61-.66-2.45-.71-2.75-.05-.31-.15-.37-.32-.44-.17-.05-.6-.22-.75-.44-.1-.11-.07-.69-.02-.8.05-.09.36-.42.46-.56.1-.12.05-.8.03-1.08-.02-.27-.07-2.54-.02-2.9.04-.39.04-2.31.02-2.71-.02-.39.18-1.93.15-2.26-.02-.31.07-1.29.23-1.78.13-.5.4-2.48.73-3.31.32-.83,1.09-2.4,1.46-3.1.37-.7,1.1-2.21,1.42-2.6.31-.41.58-.95.6-1.05.04-.09.28-.3.52-.44.25-.16.55-.8.63-1.11.1-.3.47-.4.76-.65.29-.28.38-.72.4-1.15.02-.45.22-1.48.44-1.97.23-.47,1.03-2.39,1.15-2.75.12-.36,1.15-2.09,1.27-2.25.13-.14,1.13-1.5,1.39-1.78.28-.27,1.48-1.31,2.11-1.7.63-.36,1.71-.75,1.71-.75,0,0,.03-.3-.07-.41-.1-.12-.22-.45-.22-.45,0,0-.22.17-.59.36-.37.16-2.13,1.15-2.2,1.15-.06,0-.63.45-.93.66-.28.19-1.02,1.12-1.02,1.12,0,0-1.13-.94-1.62-1.25-.5-.33-1.2-1.12-1.2-1.12,0,0,.1.52.17.65.07.11.97.98,1.34,1.36.38.37.54.76.59,1.14.05.37-.83,1.39-1.1,1.93-.27.55-1.5,2.78-1.52,3.14-.03.34-.84,2.51-.91,2.73-.06.22-.91,1.58-1.03,1.86-.12.28-1.78,2.92-1.85,3.14-.08.22-1.37,2.53-1.54,2.95-.16.45-.86,1.79-1.1,2.04-.25.23-.64.86-.62,1.06.03.2.06.62-.03.86-.11.22-.37.47-.7.56-.35.09-3.21.17-3.53.17s-3.72.19-3.72.19l.02.64s.79-.03,1.21.05c.41.08,1.65-.16,2.17-.05.51.09,2.99.3,3.24.36.24.05.22.47.19.65-.02.17.03,1.78.03,2.15Z"/>
        <path class="cls-1" d="m13.18,79.52c-.02-.08-.15-.41-.15-.41h-.34s-.11,1.45-.11,1.76-.13.94-.02,1.01c.1.06.42.12.57.14.14.03.48.05.48.05,0,0-.11-.87-.23-1.4-.12-.53-.17-1.08-.19-1.15Z"/>
        <path class="cls-1" d="m14.38,82.2c.17.05,1.04.09,1.21.11.17.03.7.05.7.05.11.08-.72-.83-.96-1.09-.23-.25-.21-.37-.44-.67-.21-.3-1.55-1.47-1.55-1.47,0,0,.2,1.09.2,1.33,0,.27.29,1.37.29,1.47,0,.14.37.22.54.28Z"/>
        <path class="cls-1" d="m14.7,80.08s.02-.45.02-.53.04-.34.04-.34c0,0-.37.05-.64-.02-.27-.05-.46-.05-.46-.05,0,0,.6.44.75.59.15.19.29.34.29.34Z"/>
        <path class="cls-1" d="m17.79,79.64c-.08.22-.34.73-.48,1.37-.14.66-.58,1.4-.58,1.4,0,0,.23.08.4.11.17.02.5.14.5.14l.13-.31s.27-.73.42-1.23c.14-.53.88-1.58.88-1.58,0,0-.25-.08-.49-.08-.25,0-.65-.11-.65-.11,0,0-.02.06-.12.28Z"/>
        <path class="cls-1" d="m16.33,83.62s-.31,1.2-.34,1.59c-.02.39-.21,1.03-.21,1.03,0,0,.27.45.44.69.18.22.35.53.35.53,0,0,.16-1.15.28-1.65.12-.5.22-1.14.32-1.39.11-.25.19-.69.19-.69,0,0-.32-.03-.48-.06-.17-.02-.55-.05-.55-.05Z"/>
        <path class="cls-1" d="m14.28,83.5s-.43-.11-.71-.06c-.27.02-1.09.33-1.09.39,0,.08.07.42.07.42,0,0,.29.17.36.27.07.11,1.68,2.75,1.79,2.93.09.2.71,1.08.75,1.17.05.11.98,1.64,1.22,1.83.25.16,1.42,1.45,1.59,1.7.17.25,1.72,1.54,2.01,1.83.3.27.76.89.88.94.13.05.31.2.31.2,0,0-.23-1-.31-1.34-.07-.34-.2-.62-.33-.75-.12-.13-.47-.62-.62-.8-.14-.17-1.76-1.78-2.32-2.48-.57-.7-2.08-2.96-2.27-3.26-.19-.3-.63-1.01-.71-1.48-.07-.48-.47-.97-.47-.97l-.14-.53Z"/>
        <path class="cls-1" d="m75.04,44.31c.25-.98.41-2.59.41-2.59,0,0-.63,1.83-.83,2.25-.19.42-.85,2.14-.85,2.14l.61.55s.42-1.34.66-2.34Z"/>
        <path class="cls-1" d="m79.69,48.88c.19-.39.95-2.06.95-2.06,0,0-.54.62-.86,1.03-.32.39-1.55,1.89-1.55,1.89l.77.61s.49-1.06.69-1.47Z"/>
        <path class="cls-1" d="m80.06,61.42l.99-.41s-.68-.61-.93-.78c-.24-.17-.55-.62-.65-.75-.1-.12-.71-.06-.71-.06,0,0,.32.97.42,1.03.1.08.89.97.89.97Z"/>
        <path class="cls-1" d="m82.35,62.59c-.14.08-.73.31-.73.31l1.91,1.76s.14-.12.4-.31c.24-.19.44-.8.44-.87s-.52-.45-.69-.58c-.17-.11-.73-.47-.73-.47,0,0-.44.08-.59.16Z"/>
        <polygon class="cls-1" points="88.41 60.03 92.85 56.13 87.9 59.36 88.2 59.67 88.41 60.03"/>
        <path class="cls-1" d="m86.53,61.59s-1.49.47-1.76.5c-.27.02-.73.16-.73.16l-.57.39.93.5,2.12-1.54Z"/>
        <path class="cls-1" d="m84.3,64.1s-.27.33-.37.44c-.09.12-.4.34-.4.34,0,0-.32-.23-.44-.19-.12.06-.84.61-.84.61,0,0,.42.62.62.62s.46.11.46.11l4.65-3.6-.37-.27-3.32,1.93Z"/>
        <path class="cls-1" d="m83.36,66.29c-.06-.08-.16-.17-.35-.17s-.37-.12-.46-.17c-.1-.05-.44-.44-.44-.44,0,0-.37.19-.39.36-.02.17-.02.92,0,1.09.02.17.1.84.13.98.02.11.06,1.12.06,1.12,0,0,.57,1.06.71,1.31.15.25.58,1.31.69,1.58.1.23.31.7.39.73.07.06.46.02.54.02.11,0,.47-.09.47-.09,0,0-.42-1.5-.53-1.72-.11-.23-.56-1.7-.56-1.84,0-.16-.22-.64-.27-.84-.06-.2-.18-.47-.08-.95.1-.47.13-.89.08-.97Z"/>
        <path class="cls-1" d="m84.33,70.64c.05.08.85,1.36,1,1.56.16.2.31.44.31.44h1.22s-.72-1.22-.89-1.56c-.17-.34-.95-1.51-.95-1.51,0,0-.76-.92-.91-1.09-.14-.17-.63-.87-.63-.87,0,0,.07.78.1.94.03.14.44,1.01.44,1.01,0,0,.27,1.03.31,1.09Z"/>
        <path class="cls-1" d="m89.84,78.46s-.64-1.29-.87-1.56c-.22-.28-.71-1.2-.71-1.29s-.46-.98-.46-.98c0,0-.44-.03-.56,0-.12.03-.64.16-.64.16,0,0,.76,1.37.89,1.67.12.3.32,1.23.32,1.37s.09,1.01.09,1.15c0,.16.1.39.17.44.07.03.53.45.66.5.13.02.13-.23.13-.39,0-.14.05-.34.05-.34,0,0,.43.67.5.83.07.14.3.55.3.55l.13-2.09Z"/>
        <path class="cls-1" d="m89.66,81.62v-.97s-1.9-.27-2.27-.39c-.37-.13-1.03-.19-1.17-.19s-.27-.08-.27-.08c0,0,.14.42.09.7-.05.28,0,.9,0,.9,0,0,.37-.05.72-.02.34.02,2.21.08,2.21.08l.68-.05Z"/>
        <path class="cls-1" d="m96.38,80.75s-3.17.09-3.25.09c-.07,0-1.17-.05-1.17-.05l.52.92s1.21-.16,1.56-.2c.34-.05,1.24-.31,1.49-.39.25-.08.85-.37.85-.37Z"/>
        <path class="cls-1" d="m93.82,84.46c.18-.05.41-.17.42-.31.03-.16,0-.72-.17-.86-.17-.11-.34-.47-.52-.59-.17-.13-.39-.09-.39-.09,0,0-.53-.34-.67-.47-.15-.12-.81-1.25-.81-1.25,0,0-.12,1.09-.09,1.29.02.2-.09.56-.09.56,0,0,.92,1.72.89,1.9-.03.17-.03,1.7-.18,2.08-.15.37-.78,2.65-.78,2.65l-.34.92.9.37s.71-2.23.92-2.73c.22-.5.51-1.89.5-1.95-.02-.08.25-1.48.41-1.53Z"/>
        <path class="cls-1" d="m89.93,92.98l-.51,1.73s.81-1.15.98-1.23c.17-.06.41-.06.41-.06,0,0,.25-.41.39-.48.15-.08.16-.28.16-.28l-1.14-.3-.29.62Z"/>
        <polygon class="cls-1" points="88.18 98.36 90.38 101.2 88.67 97.16 88.18 98.36"/>
        <path class="cls-1" d="m86.95,95.24c.08-.25.25-.86.25-.86l-1.45-2.07-1.67-2.67s-.05.22-.21.5c-.15.27-.41,1.06-.41,1.06l3.18,4.87s.23-.56.31-.83Z"/>
        <path class="cls-1" d="m85.79,98.24c.12-.17.32-.45.32-.45l.31-1.12-.19-.3s-.43.31-.65.5c-.23.17-.39.23-.61.36-.23.12-.34.65-.34.65,0,0-.57.47-.66.52-.1.05-.3.08-.3.08,0,0-1.51-1.03-1.63-1.09-.13-.05-.59-.22-.59-.22,0,0,.79.92.88,1,.1.06.82,1.34.82,1.5,0,.19-.74,1.05-.82,1.12-.07.08-1.29,1.34-1.61,1.54-.32.19-2.21,1.7-2.52,1.93-.32.22-1.64.89-1.86,1-.22.09-1.08.61-1.34.69-.27.08-2.6.89-2.92.97-.32.08-1.7.48-1.92.5-.23.03-1.69.56-1.91.56s-.76.05-.76.05l.19,1.11s1.79-.47,2.52-.62c.73-.14,1.64-.41,2.15-.67.51-.27,1.52-.47,1.7-.34.17.12.99,2.15,1.05,2.37.04.19.41,1.78.41,1.78l.91-.8s-.42-1.83-.47-2.03c-.05-.19-.33-1.4-.25-1.53.07-.12.51-.67.63-.67s.5-.09.83-.22c.33-.13,1.47-1.12,1.61-1.25.14-.11,1.86-1.42,2-1.56.15-.16,2.49-2.36,2.87-2.84.37-.47.98-1.2,1.14-1.44.17-.22.87-.92.99-1.08Z"/>
        <path class="cls-1" d="m76.88,113.4l-.71.62s.36,1.11.39,1.28c.03.17.29,1.58.29,1.58,0,0-.08-1.15,0-1.54.07-.41,0-1.08,0-1.2s.03-.73.03-.73Z"/>
        <polygon class="cls-1" points="82.71 102.04 83.61 102.78 83.75 102.54 83.06 101.7 82.71 102.04"/>
        <path class="cls-1" d="m80.35,99.39c-.19.05-.39.23-.39.23l1.65,1.56.5-.55-1.45-1.5s-.12.2-.32.25Z"/>
        <path class="cls-1" d="m76.6,82.53s.78,2.03,1.57,3.2c.78,1.17,1.95,2.6,2.34,2.89.39.28.92.8.9,1-.02.19-.28.72-.41.87-.12.14.13.55,0,.89-.12.34-1,2.98-1.18,3.57-.17.59-1.09,2.45-1.19,2.7-.11.27-1.01,1.19-1.26,1.42-.24.25-.73.55-1.14.69-.41.16-1.71.86-1.96,1.45-.23.61-1.27,1.12-1.62,1.53-.33.39-2.36,1.87-2.59,2.04-.21.17-1.46,1.15-1.7,1.37-.25.22-1.18.89-1.18.89,0,0,.11.42.16.56.05.16.36.16.56.11.19-.05,1.4-.23,1.68-.39.29-.14.63-.2.63-.2,0,0,2.17-1.64,2.77-2.01.58-.37,1.54-1.19,2-1.51.46-.34.67-.47,1.22-.58.57-.09.93-.39,1.26-.72.32-.33,1.04-.76,1.14-1.01.1-.25.74-1.09.86-1.37.12-.28.35-.59.52-.73.17-.14.43-.25.55-.48.12-.22.02-.56.23-.98.2-.44.83-2.17,1.14-2.82.32-.69.89-2.82,1.06-3.42.17-.59.86-1.76.9-2.5.05-.75,1.1-3.76,1.24-4.6.15-.84.57-2.29.6-2.6.02-.33.02-1.26-.03-1.62-.05-.34-.24-1.56-.26-2.11-.04-.55,0-1.26-.07-1.56-.04-.3-.24-1.58-.24-1.58,0,0-.37-.02-.52.11-.18.12-.29.47-.29.47,0,0,.48,1.01.5,1.12.03.09-.34,1.7-.34,1.97,0,.23-.49,2.82-.56,3.35-.07.56-.62,2.18-.71,2.73-.1.55-.64,1.58-.62,2.01.04.42-.41,1.19-.41,1.19,0,0-.27.06-.52-.08-.25-.16-1.64-1.5-2.05-1.92-.42-.42-1.98-2.18-2.1-2.36-.13-.17-.89-.97-.89-.97Z"/>
        <path class="cls-1" d="m79.91,84.15c.02.34.16,1.73.16,1.73,0,0,.64-1.09.84-1.39.19-.3.8-2.04.88-2.15.07-.14.11-.55.11-.55,0,0-.21-1.48-.32-2.15-.09-.67-.26-1.29-.29-1.45-.02-.19-.36-1.64-.36-1.64,0,0-.32-.23-.64-.2-.31.06-.8.33-.85.44-.05.09-.28.69-.28.69,0,0,.49,3.12.49,3.84s.22,2.48.25,2.84Z"/>
        <path class="cls-1" d="m41.7,51.58c.33-.16.94-.27,1.26-.37.32-.09.68-.08.68-.08l.46-.12s-.61-.33-.78-.45c-.17-.11-.6.05-.6.05,0,0-.39.33-.78.52-.38.22-1.08.56-1.08.56l-.03.16s.52-.11.87-.25Z"/>
        <path class="cls-1" d="m43.38,47.57s-.12-.34-.2-.53c-.07-.17-.41-.58-.41-.58,0,0-.31.22-.46.41-.15.2-.62.48-.62.48l1.56.87s-.02-.17.05-.34c.08-.19.08-.31.08-.31Z"/>
        <path class="cls-1" d="m38.93,50.05c-1.13.98-1.59,1.83-1.59,1.83l.55.64s.6-.58.91-1c.32-.42.69-.66.84-.78.15-.14.52-.48.75-.67.25-.17.94-.42.94-.42l-1.23-.59s-.61.51-1.18,1Z"/>
        <path class="cls-1" d="m33.09,53.54c-.15-.06-1.03-.95-1.36-1.15-.35-.2-1.14-.73-1.14-.73l2.37,3.26s.23-.12.32-.27c.09-.11.59-.25.59-.25,0,0-.64-.76-.78-.86Z"/>
        <path class="cls-1" d="m34.97,57.13s-.9.67-1.1.83c-.2.14-.91.69-.97.76-.08.06-.38.64-.38.64l-.21.47s.67-.67.92-.81c.25-.14.86-.55.86-.55l.87-1.34Z"/>
        <path class="cls-1" d="m36.2,58.89c.17-.06.85-.78,1.03-1.08.17-.3.14-.76.32-.95.17-.2.71-1.11.98-1.5.27-.41,1.2-1.28,1.2-1.28,0,0-.78.48-1.04.66-.26.17-1.63,1.09-1.63,1.09,0,0-1.04,1.19-1.27,1.47-.21.27-1.01.97-1.01.97,0,0-.74.65-1.18.92-.43.28-2,1.56-2.22,1.75-.23.17-.98.92-1.1,1.03-.12.12-.59.62-.66.75-.07.11-.57.58-.69.61-.11.02-.32.28-.32.28l-.34,1.37s1.89-1.75,2.25-2.11c.37-.33,2.02-1.61,2.25-1.79.22-.16,1.15-.84,1.49-1.11.2.11.53.25.86.36.58.2,1.29.28,1.29.28,0,0-.63-.42-1.02-.78-.16-.14-.25-.28-.32-.44.27-.17.52-.33.59-.33.14,0,.39-.13.56-.17Z"/>
        <path class="cls-1" d="m24.55,64.79c-.1-.03-1.03-.76-1.08-.66-.04.09.15.36.25.48.09.14.37.33.25.39-.12.03-.85.5-1.03.65-.16.17-.86.55-.99.66-.11.09-.24.25-.24.25,0,0,1.17-.25,1.44-.31.28-.05.93-.11,1.16-.17.22-.05.51-.14.66-.05.14.11.3.47.43.61.16.12.34.36.34.36,0,0,.29-.14.2-.3-.1-.14-.37-.73-.34-.84.02-.11.38-.11.56-.22.17-.12.46-.31.46-.31l.39-1.4s-1.03.61-1.31.72c-.3.11-1.06.16-1.15.14Z"/>
        <path class="cls-1" d="m22.45,65.35c.22.06.46.09.46.09l.68-.5-4.37-.56s3.01.89,3.23.97Z"/>
        <path class="cls-1" d="m27.01,63.75c.11-.03.29-.06.29-.06l.29-1.17s-.78.67-1,.89c-.22.23-1.31,1.2-1.31,1.2,0,0,.48.02.75-.17.27-.2.86-.67.99-.69Z"/>
        <path class="cls-1" d="m19.17,76.24c-.03.23-.07.83-.2.98-.12.14-.39.5-.39.5,0,0,.68-.03.81.02.12.05.46-.06.46-.06,0,0,.56-1.33.71-1.72.13-.41.5-1.53.66-1.67.14-.16,1-1.64,1.22-1.93.22-.31,1.1-1.78,1.1-1.78,0,0,.59-1.06.71-1.28.12-.23,1.37-2.12,1.37-2.12,0,0-.57-.64-.64-.75-.06-.09-.63.5-.68.73-.05.22-.93,2.09-1.03,2.25-.11.14-.85,1.31-1.03,1.58-.16.28-1.5,2.67-1.74,2.95-.2.3-.47.97-.65,1.33-.18.34-.67.76-.69.98Z"/>
        <path class="cls-1" d="m22.7,69.89c.16-.28.63-1.15.63-1.15,0,0,.59-.98.66-1.28.07-.3.39-.84.39-.84l.27-.33s-.53-.03-.63.03c-.11.05-.66.7-.74.94-.07.22-.65,1.25-.8,1.44-.16.2-.84,1.64-.98,2.07-.14.42-.54,1.28-.64,1.51-.1.22-.44,1.47-.44,1.47,0,0,1-1.7,1.15-1.93.14-.25.95-1.64,1.13-1.92Z"/>
        <path class="cls-1" d="m3.96,87.16c.21,0,2.59-.75,2.91-.83.31-.08.73,0,.85-.11.12-.09,1.51-.72,1.83-.86.31-.16.86-.39.86-.39,0,0-.02-.58,0-.78.03-.19.19-.81.19-.81,0,0-2.51,1.31-2.69,1.45-.2.16-1.45.59-1.58.62-.12.03-2.65,1-3.09,1.22-.45.22-2.01.86-2.21.98-.19.16-1.05.73-1.05.73,0,0,1.58-.4,1.95-.55.36-.16,1.78-.69,2.01-.69Z"/>
        <path class="cls-1" d="m9.66,88.72l.24-1.06s-1.8.58-2.27.67c-.49.11-3.33.87-3.67,1.08-.34.2-2.01.65-2.01.65l-.88.31s3.28-.41,3.8-.44c.5-.03,2.13-.48,2.22-.48s2.09-.44,2.31-.47c.11,0,.27-.27.27-.27Z"/>
        <path class="cls-1" d="m12.28,86.9c-.08.03-.52.23-.52.23l-.15,1.5s.42-.02.55,0c.13.05.42,1.11.53,1.31.12.19.76,2.03.96,2.45.2.42.73,2.2.73,2.2l.11.3,1.07-1.43s-.35-1.06-.51-1.65c-.18-.59-.7-2.82-.7-2.82,0,0-.06-1.08-.08-1.36-.03-.27-.12-.56-.12-.56l-1.32-2.2s-.12.45-.12.73c0,.27-.17,1.09-.17,1.09,0,0-.17.19-.24.22Z"/>
        <polygon class="cls-1" points="15.75 84.82 15.94 83.65 14.68 83.53 15.75 84.82"/>
        <path class="cls-1" d="m17.59,84.06l-.55,2.21s.83,1.26.98,1.5c.16.23.25.66.25.66,0,0,.22.34.47.39.24.05.34.09.34.09,0,0,.65-.3.71-.56.04-.28-.19-1.87-.19-1.87,0,0-.65-.75-.95-1.09-.3-.34-1.05-1.33-1.05-1.33Z"/>
        <path class="cls-1" d="m19.78,90.27c-.14-.02-.47.03-.47.03l-.24-.08h-.12l-.1.2.68.78.49-.39s-.11-.52-.24-.55Z"/>
        <path class="cls-1" d="m18,92.2c-.13-.19-.39-.48-.39-.48l-.54.53s0,.23.05.44c.04.2.17.76.17.76l.99-.98s-.16-.09-.28-.27Z"/>
        <path class="cls-1" d="m16.36,94.38l-.26-1.14s-.55.62-.79.98c-.24.36-.83,1.34-.83,1.34,0,0,.91-.37,1.24-.59.34-.23.64-.59.64-.59Z"/>
        <path class="cls-1" d="m24.18,106.62c.69.25,1.84.86,1.91.9.07.05,1.03-.08,1.24-.16.23-.08,1.66-.03,1.66-.03,0,0-.55-.73-.72-1.03-.17-.3-.57-.95-.57-.95,0,0-.17.11-.52.11s-.83.11-1.03.06c-.21-.05-1.01-.22-1.42-.42-.41-.2-1.97-1.04-2.18-1.15-.19-.14-.85-.73-1.11-1-.28-.28-1.6-1.59-1.68-1.64-.07-.05-.51-.8-.65-.98-.15-.17-.88-1.34-1.1-1.62-.22-.28-.83-1.37-.83-1.37,0,0-.44-.78-.64-1.06-.19-.31-.39-1.28-.39-1.28l-1.01.55s-.34.28-.57.3c-.21.03-.6.23-.75.25-.16.03-1.2.23-1.54.23s-1.42-.16-1.42-.16c0,0-.78.11-1.18.17-.39.08-1.77.16-1.77.16,0,0,1.53.37,1.81.42.27.05,1.63.22,2.16.19.55-.02,3.04-.02,3.04-.02,0,0,.64.86.8,1.12.18.23,1.49,2.76,1.49,2.76,0,0,1.37,1.62,1.64,1.92.27.3,2.44,2.17,2.74,2.39.29.22,1.87,1.09,2.56,1.34Z"/>
        <path class="cls-1" d="m16.44,99.99s-.54-.12-.62-.3c-.07-.17-.14-.42-.24-.42s-.54.05-.54.05c0,0-.7.2-.85.25-.15.05-.89-.06-.89-.06,0,0-.57-.55-.58-.91-.03-.37-.12-1.22-.12-1.22,0,0-.59.08-.76.06-.16-.03-.63-.16-.63-.16,0,0,.11.75.23,1.05.12.3.27,1.11.27,1.11,0,0,.41.98.48,1.04.08.08,1.38.14,1.38.14,0,0,1.19.08,1.79.36.58.28,1.56.48,1.56.48,0,0,.53.31.53.22,0-.06-.7-.86-.75-1.15-.08-.3-.27-.55-.27-.55Z"/>
        <path class="cls-1" d="m22.08,102.64s-.56-.62-.98-.92c-.42-.3-.54-.03-.54-.03,0,0,.83.84,1,1.03.17.17,1.34,1.09,1.34,1.09,0,0-.12-.5-.3-.76-.09-.16-.51-.4-.51-.4Z"/>
        <path class="cls-1" d="m28.79,111.78l.66-.27s-.62-.47-.99-.73c-.36-.23-1.68-1.58-2.02-1.86-.34-.27-.94-.84-1.01-.95-.08-.14-.79-.86-.79-.86,0,0-.62-.2-.87-.36-.25-.14-.97-.39-.97-.39,0,0-.71-.55-.81-.56-.1-.02-.4-.19-.4-.19,0,0,1.82,1.95,2,2.17.21.23,2.16,2.09,2.23,2.18.08.09,1.11,1.19,1.42,1.36.32.19,1.02.87,1.02.87l.53-.42Z"/>
        <path class="cls-1" d="m26.04,104.6s.59.48.72.55c.12.08.75-.02.75-.02,0,0-.14-.28-.25-.45-.13-.17-.43-.56-.43-.56,0,0-.34-.61-.51-.8-.16-.2-.44-.81-.44-.81,0,0-.31.11-.46.23-.14.11-.21.27-.21.27,0,0,.54.81.6,1.05.08.22.25.55.25.55Z"/>
        <path class="cls-1" d="m33.49,115.02s-.79-.87-.96-1.14c-.17-.28-.31-.5-.31-.5,0,0-.52-.2-.75-.31-.21-.12-.5-.3-.5-.3l-1.4.33c-.25.05-.47.08-.57.08-.23,0-.47.34-.58.44-.12.09-1.76,2.95-2.03,3.49-.26.55-2.43,3.35-2.81,4.06-.36.7-3.38,4.71-3.38,4.71,0,0,4.23-4.18,4.41-4.41.16-.23,2.9-4.01,2.9-4.01,0,0,2.14-2.62,2.2-2.79.09-.17.83-.53,1.15-.5.09,0,.22.03.39.06.39.12.77.25.77.25,0,0,1.05.45,1.17.5.12.02.3.05.3.05Z"/>
        <path class="cls-1" d="m35.39,118.57c-.24.14-.58.8-.65.84-.08.05-.42.37-.42.37,0,0,.81-.05,1.61-.73.81-.7,1.59-1.4,1.88-1.56.1-.03.22-.11.32-.17.37.09.78.2,1.08.3.58.2,1.72.73,2.18.8.46.08,1.86.89,2.04.83.18-.05.71-.37.85-.45.15-.06.2-.19.03-.27-.17-.08-.57-.12-.93-.2-.37-.08-2.43-.8-3.19-1.12-.75-.31-2.71-.97-3.11-1.22-.39-.25-1.54-.98-1.96-1.39-.41-.39-1.78-1.79-2.22-2.59-.45-.78-.91-1.42-.87-1.67.05-.27-.53-1.37-.62-1.61-.09-.22-.15-.47.04-.59.2-.11.89-.61.89-.61,0,0-.44-.22-.84-.16-.38.05-1.05.03-1.05.03,0,0-.74-.87-1.05-1.54-.32-.67-1.71-2.93-2.16-3.81-.44-.86-1.76-3.77-1.93-4.32-.17-.53-.9-2.18-.99-2.84-.11-.69-.25-1.61-.42-1.95-.17-.34-.45-1.56-.54-1.81-.1-.25-.18-.92-.27-1.15-.09-.27-.2-.39-.2-.62,0-.27.18-2.57.32-3.51.15-.95.56-2.85.74-3.34.17-.47,1.02-1.95,1.29-2.5.26-.56,1.14-1.81,1.38-2.09.25-.27.83-.48.99-1.31.14-.86.42-2.31.53-3,.12-.7,1.08-3.49,1.19-4.04.13-.55.85-2.39.96-2.75.1-.39.82-2.06.91-2.34.11-.27.52-1.39.69-1.75.16-.33.5-.91.5-.91l.28-.53s-.95.59-1.15.84c-.19.27-.68.72-.68.72,0,0-.37.59-.65,1-.3.41-.45.81-.52,1.09-.07.28-.26.78-.26.78h-.87c-.18-.03-.31-.08-.31-.08,0,0,.04.41-.05.67-.09.25-.17.34-.17.34,0,0,1.08.22,1.05.36-.03.16-.89,3.07-.98,3.42-.1.34-.62,1.64-.74,2.18-.12.55-.79,2.39-.85,2.72-.07.31-.53,1.5-.67,1.78-.15.28-.85,1.56-1.21,2.08-.36.53-1.28,1.65-1.35,1.73-.09.06-.52.3-.69.39-.17.09-.44.3-.53.64-.1.36-.03.78.09.87.11.11.3.17.32.39.03.23.03,2.15-.22,2.96-.24.81-.39,2.64-.54,2.93-.14.3-.46.86-.61,1.01-.14.17-.46.45-.41.67.03.23.29.3.39.36.09.05.53-.06.68.05.14.09.4.42.49.55.09.11.34,1.61.48,2.06.11.45.43,1.26.58,1.5.15.27.81,1.7.89,1.9.08.19.71,2.11.81,2.23.09.12.19.84.3,1.03.08.16.46.61.44.73-.04.12-.69.61-.85.87-.17.27-.35.59-.37.78-.03.22.02.45.02.45,0,0,.64-.61.98-.89.34-.27.73-.22.73-.22,0,0,.44,1.01.76,1.5.32.51,1.17,1.92,1.44,2.28.27.34,1.47,2.12,1.67,2.48.14.27.8,1.81,1.25,2.71-.36.12-.91.34-1.42.53-.6.23-2.29,1.22-2.29,1.22,0,0,1.76-.33,2.21-.42.35-.08,1.45-.33,2.02-.45.47.69,1.35,1.95,1.67,2.37.37.5.93,1.5,1.12,1.61.19.13.52.11.66.2.15.09.19.09.52.16.01,0,.03,0,.04.02.2.23.38.55.35.83-.08.55-.59,1.19-.84,1.34Z"/>
        <path class="cls-1" d="m67,111.26c.18.45.98,1.44.98,1.44,0,0-.43-2.18-.53-2.65-.09-.48-.32-1.95-.34-2.01-.04-.06-.44-1.29-.37-1.68.07-.41.21-1.25.21-1.25,0,0,.83-.27,1.24-.27.38,0,1.03-.17,1.03-.17l.46.02s1.22-.94,1.46-1.19c.25-.25,1.01-.84,1.01-.84,0,0-1.83.02-2.37.17-.54.14-2.79.19-3.26.22-.47.03-2.86.3-2.96.27-.1-.08-1.52-.09-2.13-.17-.62-.06-3.55,0-3.92.08-.36.09-2.11-.12-2.25-.09-.15.02-2.18.34-2.77.39-.59.06-2.64-.02-2.79-.02-.14,0-3.13.23-3.42.17-.29-.08-1.82-.17-2.03-.23-.22-.05-1.17-.39-1.3-.31-.12.06-1.22.65-1.63.75-.41.08-3.68.69-4.21.73-.54.05-1.96.09-2.25.17-.3.08-1.23.27-1.64.28-.41.03-1.29.03-1.47,0-.18-.02-1.3-.08-1.61-.08s-.91.02-.91.02l1.14,1.84s1.31-.08,1.81-.12c.49-.05.96-.05,1.08-.05.11,0,1.35.03,1.49.03s1.09-.2,1.22-.25c.12-.05.98-.09,1.3-.05.32.05,1.79-.28,2.11-.33.32-.05,1.16-.09,1.44-.14.26-.06,2.97-.62,3.57-.56.59.09,2.46-.11,2.55-.11.07,0,3.69-.03,4.03-.03s2.73-.08,2.73-.08c0,0,3.26.11,3.88.03.6-.08,3.84-.14,3.84-.14,0,0,2.55.05,3.08,0,.53-.06,1.17-.03,1.17-.03,0,0,.24,1.45.29,1.86.04.41.47,2.67.47,2.67,0,0,.39,1.29.57,1.73Z"/>
        <path class="cls-1" d="m29.42,103.6c-.15-.06-.65-.65-1.2-1.43-.54-.78-2.19-3.15-2.19-3.15,0,0,.68,1.51.76,1.73.11.23.86,1.54,1.02,1.89.17.34,1.35,1.95,1.35,1.95,0,0,.64.06.86.05.21-.03,1.14.05,1.14.05,0,0-.64-.37-.75-.42-.13-.05-.87-.58-1.01-.66Z"/>
        <path class="cls-1" d="m24.06,98.18c.11.22.45.61.45.61,0,0-.38-1.17-.42-1.36-.05-.2-.45-.84-.54-1.05-.1-.2-.67-1.31-.67-1.31l-.45-.81s.45,1.69.51,1.87c.05.2.11.52.11.52,0,0,.87,1.33,1.01,1.53Z"/>
        <polygon class="cls-1" points="21.35 89.25 21.57 88.6 21.28 88.24 21.35 89.25"/>
        <path class="cls-1" d="m44,111.56s1.54.84,1.96.92c.42.08,1.86.44,1.86.44l2.47,1.04.29-.72-.12-.92s-1.59-.5-2.11-.64c-.52-.14-1.35-.59-1.35-.59l.94-.28s-2.52-.28-2.72-.28c-.19,0-.63-.14-.63-.14,0,0-.9-.08-1.19-.2-.29-.13-1.25-.09-1.25-.09l-4.4.45-.41.03c-.62-.22-1.13-.39-1.13-.39,0,0-2.51-1.53-2.79-1.65-.27-.12-1.05-.7-1.05-.7,0,0-.5.27-.65.42-.15.16-.26.3-.21.41.06.09.21.47.21.47,0,0,.72.47.95.64.23.19.54.66.63.72.1.09.42.09.61.2.19.12,1.46,1.12,1.52,1.15l.15.23,1.43.55,1.11-.39s.44-.23.75.08c.32.3.52,1.56.52,1.56l.17,2.82.83.41s.1-2.34.14-3.06c.06-.72.28-1.79.28-1.79,0,0,.33-.44.98-.47.64-.02,2.2-.22,2.2-.22Z"/>
        <path class="cls-1" d="m41.72,108.1c-.44-.12-1.36-.33-1.36-.33,0,0-1.39-.48-1.69-.56-.29-.06-.86-.56-1.1-.51-.25.05-1.03.02-1.03.02l-.81.09-.72.3-.69-.09s.19.37.59.52c.39.16,1.18.45,1.18.45,0,0,.6.17.71.27.07.06.28.12.41.14h0s.9.12,1.17.17c.27.06.96.61,1.16.7.19.09,1.05.51,1.29.55.24.03.89-.09.98-.12.07-.03,1.17.09,1.47.12.29.03,1.53.31,1.53.31,0,0,1.55.22,1.79.22s1.32.16,1.32.16c0,0,.87.25,1.22.3.34.05,1.17.06,1.17.06l-.09-1.64-1.2.09s-1.74-.28-2.39-.28-1.61-.16-1.74-.16c-.11,0-2.71-.61-3.16-.76Z"/>
        <path class="cls-1" d="m40.26,118.41l-.6-.19s0,.66.07,1.17c.07.48.4,1.84.4,1.84,0,0,.21-.61.19-1.09-.03-.47-.05-1.73-.05-1.73Z"/>
        <path class="cls-1" d="m49.44,108.85c.25-.16.75.11.75.11l.02-.76s-.41-.11-.8-.22c-.41-.11-.67-.23-.67-.23,0,0-.45.19-.81.45-.38.25-1.42.47-1.42.47l2.46.33s.22,0,.48-.14Z"/>
        <path class="cls-1" d="m58.09,109.17s-.79.14-1.42.17c-.63.05-1.29.11-1.4.11s-.91.03-1.97-.08c-1.07-.09-1.33-.03-1.33-.03l.28,1.9s-.02,0,.12.05c.14.03,1.47.22,1.8.3.33.06,2.16.33,2.16.33l1.45-.47s-.64-.13-1.11-.2c-.48-.06-2.57-.67-2.57-.67,0,0,1.32.08,1.76.11.45.03,1.95-.45,2.31-.62.37-.19-.08-.89-.08-.89Z"/>
        <path class="cls-1" d="m58.76,109.56s1.58.03,2.12,0c.56-.03,2.36.31,2.9.27.56-.03,1.41.05,1.55.05.15,0,.81-.23.81-.23l-.24-1.28s-1.19.22-1.52.25c-.34.03-3.01.14-3.38.08-.36-.08-2.06-.08-2.42-.08s-1.69-.03-1.87-.12c-.18-.06-.62-.56-.85-.47-.21.06-.65.36-.91.36s-.77-.27-1.06-.14c-.3.11-1.18.14-1.33.14s-.78-.03-.78-.03l.14.73s1.12.02,1.71-.02c.59-.05,1.71.17,2.37.06.66-.13,1.72-.16,1.99-.19.25-.05.42.19.49.37.07.17.27.25.27.25Z"/>
        <path class="cls-1" d="m52.67,101.86c0-.65-.04-2.42-.04-2.42,0,0-.52,1.45-.55,1.87-.04.41-.42,1.81-.42,1.81h.99s.02-.59.02-1.26Z"/>
        <path class="cls-1" d="m51.36,105.56s.08.58.08.84.25,1.64.25,1.64l.85.02.07-2.54-1.24.05Z"/>
        <polygon class="cls-1" points="57.15 111.06 57.18 110.69 57.08 110.7 56.01 110.89 57.15 111.06"/>
        <path class="cls-1" d="m57.04,105.43l-.8.05-.16,2.26s.22.08.36.08c.16,0,.66.37.66.37l-.07-2.76Z"/>
        <polygon class="cls-1" points="56.57 102.9 56.88 102.97 56.6 101.72 56.57 102.9"/>
        <path class="cls-1" d="m56.53,113.87l1.17.17s3.85-1.34,4.07-1.37c.23-.05,1.83-.34,1.83-.34,0,0,1.1-.64,1.32-.78.23-.16.52-.06.52-.06l4.12,3.49,1.1-.55-2.51-2.75.27,1.72s-.69-.55-.86-.73c-.18-.19-1-1.37-1-1.37l-.18-.8-.25-.59s-.81.22-1.1.3c-.29.06-2.02-.11-2.15-.11-.16,0-1.33.3-1.65.52-.35.22-2.09.81-2.09.81,0,0-1.65.36-1.91.39-.21.03-.93.36-1.19.47-.43.14-2.12.64-2.42.8-.35.17-.95.28-.95.28,0,0-.66-1.22-.72-1.84-.04-.62-.6-3.49-.71-4.04-.09-.56-.52-1.81-.61-1.81s-.12,2.59-.08,3c.05.39.21,2.32.28,2.67.07.36.07,2.18.04,2.31-.01.16-.38.78-.63.86-.25.06-.78.25-.97.05-.2-.2-1.16.12-1.48.19-.32.03-2.06-.39-2.32-.41-.27-.03-2.98-.53-3.32-.53s-1.09-.19-1.09-.19l-.11,1.58s2.71.37,3.1.37,2.54.23,2.74.25c.2.03,1.1.11,1.1.11,0,0-.46.78-.85,1.14-.4.34-2.28,1.93-2.58,2.11-.29.17-1.95.94-2.15.98-.2.08-.65.2-.97-.03-.32-.22-.57-.5-.57-.5l-.02,1.51s1.17.33,1.44.28c.27-.06,1.93-.86,2-.86.08,0,.57-.3,1.18-.47.61-.19,2.22-1.33,2.22-1.33,0,0,1.25-1.19,1.86-1.56.6-.36,1.62-1.06,2.45-1.4.83-.36,2.39-.92,2.39-.92,0,0,.89-.36,1.26-.61l.96-.39Z"/>
        <path class="cls-1" d="m64.22,112.33l-.76.41s.14,1.14.21,1.39c.08.27.15.94.15.94,0,0,.3-.86.26-1.19-.04-.34.14-1.05.14-1.05v-.5Z"/>
        <path class="cls-1" d="m62.9,107.79c.27-.22,1.66-.92,1.88-.83.22.12,1.01.84,1.01.84l-.25-1.95-.11-.37s-.49-.14-.7-.19c-.23-.03-1.37.05-1.37.05,0,0-.5.44-.77.81-.25.37-.66.75-.66.75,0,0-1.1.55-1.43.62-.33.08-1.43.59-1.53.64l1.94.3.95-.16s.77-.28,1.02-.51Z"/>
        <polygon class="cls-1" points="68.7 109.17 67.82 109.44 67.84 109.75 71.23 112.82 68.7 109.17"/>
        <path class="cls-1" d="m73.43,117.18c-.24-.23-.95-.94-.95-.94l-.86.36s1.45,1.17,1.81,1.44c.37.27,1.29.59,1.29.59,0,0-1.03-1.23-1.29-1.45Z"/>
        <path class="cls-1" d="m78.21,94.59l-6.49.39,6.21.98c-.02.06-.04.12-.05.17-.18.59-.84,2.82-.84,2.82,0,0,1.54-1.76,1.87-2.65.32-.91,1.1-3.06,1.1-3.06,0,0,.27-1.19.42-1.69.15-.47.22-.95.22-.95l.34-1.01-1.29-1.15s-.28.72-.57.87c-.3.14-1.01.51-1.01.51,0,0,1.46-.22,1.42-.03-.03.19-.95,2.53-.99,2.79-.03.14-.17,1.09-.33,2Z"/>
        <path class="cls-1" d="m33.18,104.76l2.12-.45s-.95-.73-1.31-1.42c-.37-.65-2.64-5.87-2.64-5.87,0,0-1.4-2.31-1.62-2.62-.22-.3-1.86-1.08-1.86-1.08,0,0-2.59-1.86-2.99-2.09-.39-.2-1.52-1.26-1.52-1.26,0,0,.32.72.36,1.26.05.55.3,1.23.3,1.23,0,0,1.46,1.17,1.88,1.5.21.14,1.33.81,2.18,1.47.46.39.69.89.92,1.28.52.81,1.75,2.6,1.75,2.6,0,0,.8,1.87,1.47,3.21.66,1.34.96,2.23.96,2.23Z"/>
        <path class="cls-1" d="m35.28,114.39c.23.2.8.53.8.53l.36.27.55.09,1.44-.05.39-.05h0l.32-.05-.14-1.48s-.26.06-.39.09c-.12.02-.21-.06-.21-.06l-1.05.2-1.33-.14s-.83-.11-1-.12c-.18-.03-.52-.08-.52-.08,0,0,.57.64.77.84Z"/>
        <path class="cls-1" d="m38.45,118.39s-.41-.61-.51-.48c-.1.11-1.1.87-1.1.87l.81,1.08c-.39.65-1.72,2.89-2.43,3.81-.84,1.09-1.85,2.29-2.06,2.81-.21.53-.89,2-.89,2l3.67-4.24,2.83-3.29c.27.06.73-.06.73-.06l-.29-1.64-.76-.84Z"/>
        <path class="cls-1" d="m12.24,70.52l.27-.48.14-.56-.3-.3-3.79-3.18s1.31,1.7,1.52,1.98c.21.31,2.15,2.54,2.15,2.54Z"/>
        <path class="cls-1" d="m25.32,105.07c.17.02.38.13.38.13,0,0-.06-.31-.1-.44-.04-.12.02-.3.02-.39s-.13-.39-.2-.47c-.08-.11-.6-.41-.66-.48-.06-.08-.24.12-.3.08-.05-.06-.2-.42-.25-.58-.06-.16-.48-.41-.57-.5-.09-.09-.33-.55-.33-.67,0-.09-.43-.5-.54-.56-.14-.05-.58-.11-.58-.11h0c-.13-.03-.27-.06-.34-.11-.14-.14-.57-.64-.92-.78-.36-.16-1.26-.67-1.4-.81-.14-.16-1.25-1.86-1.36-2.25-.13-.37-.74-2.23-.81-2.61-.07-.37-.17-.42-.21-.62-.05-.2-.35-1.68-.42-2.04-.07-.34,0-.87-.18-1.04-.17-.17-.45-.73-.58-.84-.12-.09-.35-.58-.5-.72-.15-.17-.47-.61-.47-.61,0,0-.16.39,0,.7.15.28.38.56.55.75.16.2.45.84.45,1.11,0,.23.37,2.22.46,2.81.12.59.64,2.17.71,2.4.07.22.46,1.29.55,1.42.07.11,1.61,2.4,1.61,2.4,0,0,.83.47.9.59.08.14-.1.25-.1.25,0,0,.12.31.37.3.26-.02.64,0,.83.16.2.14.74.58.84.72.09.16.29.39.51.48.05,0,.11.03.19.06.13.06.43.22.66.25.28.06.76.59.92.73.15.13.42.5.51.62.09.14-.02.56-.02.56,0,0,.21.09.39.11Z"/>
      </g>
    </g>
  </g>
</svg>