<?xml version="1.0" encoding="UTF-8"?>
<svg id="_圖層_2" data-name="圖層 2" xmlns="http://www.w3.org/2000/svg" viewBox="0 0 63.37 62.58">
  <defs>
    <style>
      .cls-1 {
        fill: #eedede;
      }
    </style>
  </defs>
  <g id="_圖層_2-2" data-name="圖層 2">
    <path class="cls-1" d="m55.78,62c-1.2-.09-2.14-.16-3.08-.23l.02-.51c.52-.06,1.04-.12,1.49-.18-.36-.9-.69-1.75-1.09-2.75-1.2,0-2.55.07-3.89-.01-3.38-.2-6.75-.52-10.13-.68-6.36-.29-12.72-.52-19.08-.72-1.39-.04-2.78.15-4.14.24-.27,2.65-.05,2.82,2.3,2.83,2.05.01,4.1.29,6.15.36,5.31.17,10.62.33,15.93.42,3.89.07,7.77.01,11.66.01.08.23.16.46.24.69-.34.26-.67.74-1.02.75-4.2.15-8.41.26-12.61.33-1.65.03-3.31-.04-4.96-.1-5.01-.21-10.01-.45-15.02-.66-1.22-.05-2.45-.03-3.67-.07-.99-.03-1.12-.68-1.24-1.53-.1-.7-.6-1.33-.9-2-.24-.53-.61-1.05-.66-1.6-.29-3.31-1.93-5.86-3.83-8.53-2.56-3.6-6.28-6.49-7.6-10.86-.92-3.06-.98-6.15.66-9.26,1.78-3.38,4.42-5.23,8.02-5.43,3.47-.19,7.04-.17,10.14,2.23.64-2.46.9-4.93,3.36-6.33,2.35-1.34,4.74-.88,7.33-.54,0-1.41,0-2.68,0-3.95,0-.15,0-.3,0-.45-.05-3.39-.37-2.98-3.52-2.98-.23.08-1.88-.06-2.1,0-.67-1.23-1.05-3.15,0-3.15,1.31,0,4-.48,5.43-.74-.19-2.41-.19-3.46-.19-6.61.19,0,2.13.02,2.32.03v6.8c1.63,0,2.91.05,4.2-.01,1.51-.07,1.68.89,1.75,2.03.08,1.28-.6,1.68-1.74,1.66-1.24-.02-2.49,0-4.05,0,.3,2.75.57,5.28.86,7.99,2.56-1.4,5.23-1.19,7.87-1.3,1.27-.05,3.17,1.52,3.49,2.74.47,1.77,0,2.1.18,4.32.1.51.01,1.05.01,1.84.77-.62,1.31-1.03,1.83-1.47,2.84-2.44,7.02-3.21,10.57-2.6,3.22.56,6.18,5.08,6.29,8.39.11,3.02.12,6.73-1.5,9.36-1.1,1.78-2.15,3.68-2.76,5.67-.97,3.17-2.36,5.44-2.28,8.77,0,.3.36.59.4.9.07.59.3,1.51,0,1.75-1.34,1.11-1.45,2.52-1.36,4.06.02.33-.03.66-.05,1.07Zm-27.27-14.07c-1.48-2.82-2.74-6.46-4.17-8.96-1.7-2.96-4.33-5.43-4.71-9.08-.03-.27-.35-.6-.62-.75-1.23-.65-2.49-2.3-3.75-2.91-1.97-.95-5.62-.63-7.08.75-2.94,2.76-4.85,6.04-2.55,9.73,1.88,3.01,5.31,7.57,7.34,10.49.57.82,2.49,1.42,3.53,1.23,1.57-.29,3.17-.43,4.77-.49,2.29-.08,4.58-.02,7.23-.02Zm6.65-.73l.23.39c4.36,0,8.71.02,13.07-.03.45,0,3.05.03,3.33-.35,2.36-3.16,4.74-7.84,7.09-11,.79-1.06,1.06-2.22.57-3.38-.26-1.09.37-2.66-1.02-4.87-.77-1.23-2.14-1.94-3.59-1.91-1.15.03-2.4.15-3.06.19-4.86.25-7.5,4.62-9.41,8.86-.3.67-.85,1.72-1.21,2.36-1.65,2.91-4.35,6.86-6,9.76Zm-1.64-1.78c1.78-3.99,3.7-7.84,5.21-11.84,1.12-2.97,1.79-6.13,2.52-9.23.25-1.05.21-2.22-1.04-2.87-1.55-.81-3.34-1.14-4.67-.19-2.24,1.6-3.07,1.94-2.33,5.05.29,1.21.41,2.48.41,3.73.02,3.51-.07,7.01-.11,10.52-.02,1.63,0,3.27,0,4.82Zm-18.23,8.06c.44,0,.69.03.94,0,7.57-.98,15.1.29,22.65.39.25,0,.51.04.74.11,3.96,1.29,8.06.54,12.09.86.31.02.88-.34.96-.62.23-.9.28-1.84.42-2.89-1.14-.09-2.12-.25-3.1-.24-8.26.12-16.51.27-24.76.41-3.35.06-6.7.14-10.2.22.11.7.18,1.17.27,1.77Zm14.84-11.95c.21-.08.42-.15.63-.23.02-.29.07-.57.07-.86,0-5.11-.04-10.21.03-15.32.02-1.6-.05-3.1-2.15-4.15-1.05,0-1.46.09-2.1,0-2.23-.32-3.68,1.61-3.66,3.84.01,1,.01,2.01.15,3,.3,2.27,1.53,4.58,3.36,6.33.48.46.69,1.21.99,1.83.9,1.85,1.78,3.7,2.67,5.55Z"/>
  </g>
</svg>