<?xml version="1.0" encoding="UTF-8"?>
<svg id="_圖層_2" data-name="圖層 2" xmlns="http://www.w3.org/2000/svg" viewBox="0 0 55.71 68.18">
  <defs>
    <style>
      .cls-1 {
        fill: #80402b;
      }
    </style>
  </defs>
  <g id="_圖層_2-2" data-name="圖層 2">
    <path class="cls-1" d="m26,54.03c1.71-.41,2.98-.64,4.19-1.03.56-.18,1.18-.57,1.49-1.05,2.31-3.56,6.69-4.85,10.58-3.17.79.34,1.81.36,2.68.23,3.13-.48,6.32-.63,8.49,2.02,2.33,2.83,2.94,6.25,1.57,9.8-.5,1.31-1.08,2.61-1.83,3.79-1.39,2.18-3.25,3.6-6.07,3.55-4.61-.09-9.23,0-13.84,0-.9,0-1.88.11-2.69-.2-3.66-1.41-7.46-1-11.23-1.12-2.67-.09-5.33-.54-8.07-.83-.2-6.94,5.51-3.77,8.16-5.2,0-6.04.06-12.03-.09-18.02-.02-.67-1.12-1.62-1.91-1.93-7.68-3.01-12.15-9.1-15.6-16.15C-.29,20.41-.08,15.72.12,11.11c.13-3.05.47-6.11,1.01-9.12.12-.68,1.44-1.56,2.26-1.62C6.92.1,10.47.04,14.01.02c6.6-.04,13.2,0,19.8.02,1.15,0,2.32.02,3.46.19.58.09,1.41.4,1.6.85.74,1.71,1.79,3.51,1.79,5.27-.02,5.98.9,11.96-.67,17.96-1.97,7.55-5.72,13.64-12.54,17.57-1.34.77-1.56,1.53-1.49,2.92.14,3.04.04,6.1.04,9.24ZM2.23,13.32c.62,2.89.67,5.66,1.8,7.88,3.72,7.3,8.89,13.35,16.96,16.02,1.69.56,4.15.46,5.67-.39,7.42-4.17,10.88-10.96,11.52-19.27.21-2.78-.64-3.4-3.52-3.25-10.54.57-21.06.61-32.42-1Zm33.54,39.6c.42,1.37.71,2.35,1.01,3.33-.98.01-1.96.03-2.94.04-1.62.02-3.25-.03-4.86.13-.4.04-.94.69-1.08,1.16-.77,2.61,2.4,6.55,5.12,6.39,5-.29,10.01-.62,15.01-.97,1.99-.14,4.06-2.06,4.33-4.77.13-1.28-.69-3.11-1.7-3.93-1.13-.92-2.96-.97-4.52-1.41q-1.03,5.66-2.3,6.24c-.78-1.91-1.14-4.19-2.45-5.62-1.51-1.66-3.89-1.18-5.63-.59ZM2.46,8.9c11.98.52,23.73,1.03,35.67,1.55v-5.22H2.25c.07,1.22.12,2.19.21,3.67Zm20.02,45.22s.09,0,.14,0v-10.11s-.09,0-.14,0v10.11Z"/>
  </g>
</svg>