<?xml version="1.0" encoding="UTF-8"?>
<svg xmlns="http://www.w3.org/2000/svg" xmlns:xlink="http://www.w3.org/1999/xlink" viewBox="0 0 146 146">
  <defs>
    <style>
      .cls-1 {
        fill: #eedede;
        filter: url(#drop-shadow-1);
        mix-blend-mode: overlay;
        opacity: .8;
      }

      .cls-2 {
        isolation: isolate;
      }

      .cls-3 {
        fill: #aa4b41;
      }

      .cls-4 {
        fill: #80402b;
      }
    </style>
    <filter id="drop-shadow-1" filterUnits="userSpaceOnUse">
      <feOffset dx="2" dy="2"/>
      <feGaussianBlur result="blur" stdDeviation="2"/>
      <feFlood flood-color="#602e08" flood-opacity=".6"/>
      <feComposite in2="blur" operator="in"/>
      <feComposite in="SourceGraphic"/>
    </filter>
  </defs>
  <g class="cls-2">
    <g id="_圖層_2" data-name="圖層 2">
      <g id="_圖層_2-2" data-name="圖層 2">
        <circle class="cls-1" cx="71" cy="70.51" r="66.51"/>
        <path class="cls-3" d="m70.14,35.8h.77c.09.13.17.13.26,0h.26c.04.09.09.09.13,0h.77c.01.17.2.19.28.2,1.46.28,2.56,1.17,3.56,2.18,4.79,4.83,9.65,9.57,14.38,14.46,3.8,3.93,7.71,7.75,11.59,11.6.83.83,1.44,1.76,1.63,2.93.03.17.11.26.26.31v.38c-.18.43-.18.85,0,1.28v.51c-.19.06-.22.19-.26.38-.23,1.09-.79,2.03-1.58,2.76-1.28,1.2-2.8,1.93-4.63,1.71-.52-.06-.55.16-.56.6-.07,6.62.21,13.25-.14,19.87-.11,2.13-1.22,3.74-2.93,4.96-.92.66-1.97,1.03-3.07,1.28h-.51c-.09-.13-.17-.13-.26,0h-11.12c-1.05-.44-1.41-1.23-1.4-2.35.04-4.83.01-9.67.02-14.5,0-.61-.04-1.22-.31-1.77-.71-1.41-1.95-1.91-3.45-1.91-1.77,0-3.54.04-5.3-.01-1.93-.06-3.6,1.4-3.55,3.54.12,4.81.02,9.62.05,14.44,0,1.2-.36,2.1-1.52,2.57h-10.99c-.13-.16-.26-.17-.38,0h-.38c-.07-.04-.14-.09-.22-.1-1.92-.2-3.37-1.21-4.53-2.67-.77-.97-1.35-2.08-1.36-3.32-.05-6.62-.03-13.24-.04-19.86,0-.23,0-.46,0-.75-.58.26-1.11.06-1.64,0-1.25-.12-2.33-.61-3.29-1.43-1.08-.92-1.69-2.11-2.09-3.43v-.77c.13-.09.13-.17,0-.26v-.26c.13-.09.13-.17,0-.26v-.77c.43-1.78,1.64-3.02,2.89-4.26,8.6-8.56,17.18-17.15,25.76-25.73.15-.15.31-.28.47-.42.05-.03.1-.06.15-.1.68-.54,1.56-.65,2.3-1.05Z"/>
        <path class="cls-4" d="m103.97,70.82c.65-.84,1.29-.83,1.94,0h-1.94Z"/>
      </g>
    </g>
  </g>
</svg>