<?xml version="1.0" encoding="UTF-8"?>
<svg id="_圖層_2" data-name="圖層 2" xmlns="http://www.w3.org/2000/svg" viewBox="0 0 118.96 75.85">
  <defs>
    <style>
      .cls-1 {
        fill: #3a1e16;
      }
    </style>
  </defs>
  <g id="_圖層_2-2" data-name="圖層 2">
    <g>
      <path class="cls-1" d="m66.66,44.87h-5.38v-9.38h5.23c.96,0,1.99.18,2.48,1.12.33.63.39,1.67.17,2.35-.14.43-.42.8-.9,1.09.32.13.59.35.8.63.48.65.46,1.84.29,2.59-.33,1.29-1.5,1.6-2.7,1.6m1.21-7.81c-.23-.34-.64-.56-1.24-.56h-4.22v3.06h4.3c.78,0,1.3-.35,1.4-1.14.08-.56.02-1.01-.24-1.37m.4,4.69c-.19-.83-.83-1.15-1.65-1.15h-4.21v3.25h4.22c.77,0,1.57-.24,1.66-1.13.04-.35.06-.65-.02-.97"/>
      <path class="cls-1" d="m79.88,44.87c-.39,0-.86-.17-1.11-.49-.53.32-1.13.47-1.77.49-.66,0-1.44,0-2.11-.04-1.16-.06-1.71-.8-1.8-1.9-.02-.42.02-.76.09-1.09.16-.86,1.23-1.26,1.99-1.26h3.3v-.62c0-.69-.41-.92-1.06-.98-.7-.08-1.7-.06-2.2-.03-.5.03-.9.19-.9.74v.31h-1.19v-.39c0-1.22.87-1.62,1.96-1.65.93-.03,1.87-.03,2.74.04,1.04.07,1.77.91,1.77,1.95v3.54c0,.23.18.35.42.35h.37v1h-.51Zm-1.41-3.3h-3.14c-.52,0-1.02.23-1.06.69-.03.26-.03.53-.02.75.03.54.34.8.92.84.56.04,1.08.03,1.61,0,.62,0,1.21-.11,1.69-.47v-1.83Z"/>
      <path class="cls-1" d="m89.41,44.87v-4.71c0-.7-.52-1.13-1.2-1.17-.5-.04-1.27-.02-1.78.04-.54.06-1.05.31-1.45.72v5.12h-1.11v-6.85h1.11v.52c1.08-.7,2.53-.59,3.76-.48,1.02.08,1.81.94,1.81,1.97v4.85h-1.14Z"/>
      <path class="cls-1" d="m98.59,44.87v-4.71c0-.7-.52-1.13-1.2-1.17-.51-.04-1.27-.02-1.77.04-.55.06-1.06.31-1.45.72v5.12h-1.12v-6.85h1.12v.52c1.08-.7,2.52-.59,3.75-.48,1.03.08,1.81.94,1.81,1.97v4.85h-1.13Z"/>
      <path class="cls-1" d="m110.19,43.77c-.38.88-1.19,1.08-2.04,1.08-1.21,0-3.01.27-4.01-.59-.38-.32-.62-.77-.65-1.43-.03-.77-.06-1.68-.01-2.51.1-1.67,1.17-2.25,2.68-2.31.71-.03,1.65.01,2.16.07,1.38.14,2.1,1.03,2.1,2.37v1.45h-5.85c0,.5-.05,1.14.24,1.54.21.27.56.41,1.1.45.61.04,1.46.04,2.15.02,1.03-.02,1.14-.06,1.23-.93h1.06c-.03.53-.11.65-.17.8m-.91-3.52c-.03-.5-.22-1.01-.75-1.13-.58-.12-1.63-.16-2.33-.13-.94.04-1.52.25-1.61,1.32-.01.21,0,.41-.01.63h4.7c0-.22.02-.46,0-.69"/>
      <path class="cls-1" d="m117.24,39c-.91,0-1.55.43-1.92,1.25v4.61h-1.16v-6.85h1.16v.83c.39-.56,1.1-.83,1.77-.83h1.68v.99h-1.53Z"/>
      <path class="cls-1" d="m68.76,74.86c-.54.61-1.36.88-2.42.93-.6.03-1.72.05-2.5-.01-2.08-.15-2.71-1.48-2.8-3.34-.05-1-.06-2.07,0-3.08.13-2.07,1.16-2.9,3.16-2.96.82-.03,1.71-.01,2.53.02,1.59.08,2.59,1.08,2.59,2.65v.12h-1.14v-.07c0-.96-.61-1.67-1.58-1.74-.78-.05-1.63-.05-2.29-.03-1.41.04-1.97.53-2.12,1.96-.1.95-.09,2.31-.03,3.26.09,1.15.35,2.01,1.65,2.17.64.08,1.98.09,2.67.05,1.23-.08,1.77-.82,1.77-1.97v-.08h1.13v.11c0,.86-.22,1.53-.62,1.99"/>
      <path class="cls-1" d="m78.76,75.78v-4.62c0-.87-.76-1.19-1.51-1.26-.45-.03-.96-.03-1.41-.01-.75.04-1.31.21-1.81.7v5.2h-1.15v-9.38h1.15v2.95c.56-.32,1.23-.42,1.91-.46.55-.03,1.17-.04,1.71.01,1.71.17,2.26,1.05,2.26,2.72v4.15h-1.15Z"/>
      <path class="cls-1" d="m90.14,75.78c-.38,0-.86-.26-1.1-.6-.43.4-1.02.53-1.42.56-.65.07-1.34.1-1.99.05-1.33-.1-2.16-.89-2.16-2.23v-4.64h1.1v4.41c0,1.04.37,1.41,1.41,1.46.41,0,.95,0,1.38-.04.57-.08,1.08-.28,1.46-.77v-5.07h1.12v5.35c0,.38.29.51.48.51h.38v1h-.65Z"/>
      <path class="cls-1" d="m97.11,69.92c-.91,0-1.55.43-1.93,1.25v4.61h-1.16v-6.85h1.16v.83c.41-.55,1.11-.83,1.79-.83h1.68v.99h-1.54Z"/>
      <path class="cls-1" d="m107.92,75.16c-.4.38-.97.62-1.77.67-.65.04-1.54.02-2.25-.04-1.54-.12-2.12-.98-2.28-2.39-.07-.74-.03-1.49.02-2.19.1-1.4,1.01-2.06,2.3-2.21.77-.09,1.63-.06,2.39-.01.9.05,1.48.4,1.84.9.31.43.43.95.43,1.47h-.03s-1.07.01-1.07.01v.05c0-.76-.43-1.32-1.2-1.42-.58-.08-1.31-.07-1.83-.04-1.04.04-1.58.33-1.73,1.45-.06.54-.03,1.28.01,1.83.06.86.42,1.47,1.33,1.57.74.08,1.39.08,2.1.03.91-.06,1.33-.6,1.33-1.44v.02h1.07s.01.14.01.14c0,.58-.21,1.16-.68,1.6"/>
      <path class="cls-1" d="m117.58,75.78v-4.62c0-.87-.75-1.19-1.51-1.26-.44-.03-.96-.03-1.4-.01-.75.04-1.31.21-1.79.7v5.2h-1.16v-9.38h1.16v2.95c.56-.32,1.23-.42,1.9-.46.55-.03,1.18-.04,1.71.01,1.72.17,2.26,1.05,2.26,2.72v4.15h-1.16Z"/>
      <path class="cls-1" d="m62.81,52.84v1.84h2.61v5.53c0,.39-.15.77-.4,1.04-.24.26-.55.42-.93.42h-.87v-.92h.66c.24,0,.57-.3.57-.59v-4.55h-1.64v4.82c0,.34-.14.67-.37.9-.2.2-.48.33-.81.33h-.59v-.92h.3c.19,0,.49-.31.49-.52v-7.39h-.72v-.93h1.87v-1.52h1.02v1.52h1.54v.93h-2.73Zm4.8-.35l-.1.25c-.11.23-.25.41-.43.55-.2.14-.45.21-.72.21h-.54v-.86h.25c.24,0,.46-.24.54-.45l.73-1.78h1.13l-.49,1.17h4.63v.93h-5.01Zm-1.62,9.18v-.92h2.85v-2.17h-2.46v-.92h2.46v-2.06h-1.44l-.06.32c-.05.28-.21.54-.43.71-.18.13-.41.23-.64.23h-.43v-.87h.2c.19,0,.35-.18.39-.35l.39-1.78h.97l-.18.81h1.23v-1.53h1.06v1.53h2.52v.94h-2.52v2.06h2.26v.92h-2.26v2.17h2.73v.92h-6.63Z"/>
      <path class="cls-1" d="m77.93,52.87v1.78h2.54v5.69c0,.31-.13.65-.35.9-.22.23-.54.4-.89.4h-.8v-.87h.66c.17,0,.38-.23.38-.4v-4.8h-1.54v5.03c0,.27-.13.52-.32.72-.18.19-.44.32-.71.32h-.6v-.87h.33c.14,0,.29-.16.29-.28v-7.62h-.57v-.93h1.78v-1.53h1.02v1.53h1.42v.93h-2.64Zm5.01,8.04c-.16.22-.34.4-.54.53-.22.14-.49.21-.77.21h-.81v-.87h.72c.17,0,.46-.17.56-.3l.56-.81h1.11l-.83,1.24Zm-2.08-1.59v-.87h.99v-3.82h-.8v-.87h.8v-.55h-.96v-.88h.53c.17,0,.39-.18.45-.34l.61-1.56h1.04l-.3.73h4.51v.91h-4.88l-.21.5c-.05.13-.16.23-.22.31h.42v.88h3.01v-.88h.97v.88h.78v.87h-.77v3.82h.96v.87h-6.96Zm5.01-4.69h-3.01v.71h3.01v-.71Zm0,1.52h-3.01v.71h3.01v-.71Zm0,1.53h-3.01v.78h3.01v-.78Zm1.42,3.98c-.26,0-.53-.06-.79-.2-.26-.11-.5-.29-.66-.5l-.94-1.28h1.17l.65.83c.12.15.38.28.57.28h.64v.87h-.65Z"/>
      <path class="cls-1" d="m97.58,58.64c-.49,0-.89.09-1.22.22l-.52.21v1.11c0,.42-.12.79-.38,1.05-.25.24-.64.4-1.16.4h-.91v-.88h.85c.37,0,.65-.28.65-.61v-.78l-.49.22c-.31.13-.62.18-.96.18h-1.16s0-.9,0-.9h1.17c.27,0,.54-.07.76-.16l.67-.3v-1.06l1.54-.9h-2.28l-.13.32c-.11.26-.3.49-.53.65-.22.16-.48.25-.82.25h-.52v-.86h.27c.28,0,.6-.17.69-.38l.81-1.87h-1.66v-.9h2.12v-1.36h-1.84v-.89h1.84v-.99h1v.99h.99v.89h-.99v1.36h.65l1.21-2.83h1.09l-1.22,2.83h.8v.9h-2.94l-.44,1.01h3.44v.83l-2.12,1.3v.36l.48-.15c.31-.11.79-.2,1.12-.2h.97v.93h-.83Zm5.36,2.98c-.21,0-.45-.12-.67-.26-.24-.17-.44-.39-.54-.59l-.73-1.64-.58,1.63c-.1.3-.3.5-.55.64-.25.14-.56.21-.9.21h-1.12v-.86h.94c.35,0,.66-.17.78-.53l.82-2.4-1.25-2.7h1.03l.68,1.45.59-1.83c.09-.28.13-.66.13-1v-.61h-1.61l-.2.7c-.09.3-.3.56-.57.74-.24.16-.53.24-.82.24h-.23v-.89c.47.01.69-.22.75-.52l.65-3.09h1.04l-.44,1.89h3.52v.93h-1.12v.61c0,.38-.08.89-.19,1.26l-.91,2.81,1.13,2.43c.13.23.38.5.6.5h.56v.86h-.79Z"/>
      <path class="cls-1" d="m118.38,53.33c-.39,0-.85-.14-1.18-.39h-8.07c-.28.23-.69.39-1.11.39h-.69v-.79h.48c.25,0,.52-.09.67-.27l1.23-1.68h6.9l1.13,1.57c.17.24.5.39.81.39h.41v.79h-.58Zm-.33,3.32c-.28.31-.69.53-1.33.53h-8.82v-3.56h10.51v1.93c0,.42-.11.81-.36,1.11m-.32,4.45c-.28.35-.74.57-1.27.57h-8.24v-3.8h9.91v2.13c0,.42-.14.8-.4,1.1m-5.09-6.71h-3.69v2.03h3.69v-2.03Zm4.46,4.25h-7.81v.77h7.81v-.77Zm0,1.47h-7.81v.81h7.07c.4,0,.75-.31.75-.64v-.17Zm-5.98-4.19c-.32,0-.71-.12-.9-.3l-.88-.9h1.23l.41.36c.08.08.2.12.32.12h.89v.72h-1.06Zm4.83-4.55h-5.57l-.59.8h6.74l-.58-.8Zm1.43,3.01h-3.74v2.03h3.01c.39,0,.73-.26.73-.66v-1.38Zm-1.16,1.16c-.17.19-.64.38-.9.38h-1.16v-.72h.81c.17,0,.38-.07.46-.15l.31-.33h1.25l-.77.82Z"/>
      <path class="cls-1" d="m23.28,49.68v-26.17L61.26,0v26.17l-37.98,23.5Zm4.88-22.63v13.05l28.24-17.47v-13.06l-28.24,17.48Z"/>
      <path class="cls-1" d="m26.62,61.58C11.94,61.58,0,49.67,0,35.03S11.94,8.48,26.62,8.48s26.62,11.91,26.62,26.55-11.94,26.55-26.62,26.55m0-47.73c-11.7,0-21.23,9.5-21.23,21.18s9.52,21.17,21.23,21.17,21.22-9.49,21.22-21.17-9.51-21.18-21.22-21.18"/>
    </g>
  </g>
</svg>