<?xml version="1.0" encoding="UTF-8"?>
<svg id="_圖層_2" data-name="圖層 2" xmlns="http://www.w3.org/2000/svg" viewBox="0 0 65 65">
  <defs>
    <style>
      .cls-1 {
        fill: #fff;
      }

      .cls-2 {
        fill: #a03ab9;
      }
    </style>
  </defs>
  <g id="_圖層_2-2" data-name="圖層 2">
    <g>
      <rect class="cls-2" x="0" y="0" width="65" height="65" rx="31.54" ry="31.54"/>
      <g>
        <g>
          <path class="cls-1" d="m32.5,9.73c-12.83,0-23.26,10.44-23.26,23.26,0,9.81,6.11,18.2,14.72,21.62-.02-.17-.03-.35-.04-.53l-.51-4.36c-5.93-3.23-9.97-9.52-9.97-16.73,0-10.51,8.55-19.06,19.06-19.06s19.06,8.55,19.06,19.06c0,7.22-4.04,13.5-9.97,16.73l-.51,4.36c0,.18-.02.35-.04.53,8.61-3.41,14.73-11.8,14.73-21.62,0-12.83-10.44-23.26-23.26-23.26Z"/>
          <path class="cls-2" d="m40.75,54.99l.04-.47c.01-.15.03-.29.03-.45l.53-4.51.11-.06c6.07-3.31,9.84-9.64,9.84-16.51,0-10.37-8.44-18.81-18.81-18.81s-18.81,8.44-18.81,18.81c0,6.88,3.77,13.21,9.84,16.51l.11.06.53,4.48c0,.18.02.33.03.48l.04.41-.37-.1c-9.04-3.58-14.88-12.16-14.88-21.85,0-12.97,10.55-23.51,23.51-23.51s23.51,10.55,23.51,23.51c0,9.69-5.84,18.26-14.88,21.85l-.38.15Zm-8.25-45.01c-12.69,0-23.01,10.32-23.01,23.01,0,9.35,5.56,17.64,14.19,21.23,0-.05,0-.09,0-.14l-.5-4.21c-6.16-3.41-9.98-9.87-9.98-16.89,0-10.65,8.66-19.31,19.31-19.31s19.31,8.66,19.31,19.31c0,7.02-3.82,13.48-9.98,16.89l-.5,4.23s0,.07,0,.11c8.64-3.59,14.19-11.88,14.19-21.23,0-12.69-10.32-23.01-23.01-23.01Z"/>
        </g>
        <g>
          <path class="cls-1" d="m32.5,17.71c-8.43,0-15.28,6.86-15.28,15.28,0,4.76,2.19,9.01,5.62,11.82l-.3-2.53c-.01-.1-.02-.19-.02-.29,0-.85.15-1.67.42-2.42-1.29-1.87-2.05-4.13-2.05-6.57,0-6.4,5.21-11.61,11.61-11.61s11.61,5.21,11.61,11.61c0,2.44-.76,4.7-2.05,6.57.27.76.42,1.57.42,2.42,0,.1,0,.2-.02.29l-.3,2.53c3.42-2.8,5.62-7.06,5.62-11.82,0-8.43-6.86-15.28-15.28-15.28Z"/>
          <path class="cls-2" d="m23.15,45.4l-.48-.39c-3.63-2.97-5.71-7.35-5.71-12.01,0-8.56,6.97-15.53,15.53-15.53s15.53,6.97,15.53,15.53c0,4.66-2.08,9.04-5.71,12.01l-.48.39.37-3.15c.01-.09.02-.17.02-.26,0-.8-.14-1.59-.41-2.34l-.04-.12.07-.11c1.31-1.9,2-4.12,2-6.43,0-6.26-5.09-11.36-11.36-11.36s-11.36,5.09-11.36,11.36c0,2.3.69,4.53,2,6.43l.07.11-.04.12c-.27.75-.41,1.54-.41,2.34,0,.09,0,.18.02.26l.37,3.15Zm19.18-5.8c.26.77.4,1.57.4,2.39,0,.11,0,.21-.02.32l-.22,1.9c3.21-2.86,5.04-6.91,5.04-11.21,0-8.29-6.74-15.03-15.03-15.03s-15.03,6.74-15.03,15.03c0,4.3,1.83,8.35,5.04,11.21l-.22-1.9c-.01-.11-.02-.21-.02-.32,0-.81.13-1.62.4-2.39-1.32-1.96-2.02-4.24-2.02-6.6,0-6.54,5.32-11.86,11.86-11.86s11.86,5.32,11.86,11.86c0,2.36-.7,4.64-2.02,6.6Z"/>
        </g>
        <path class="cls-1" d="m35.32,37.32h-.48c2.2-.92,3.74-3.08,3.74-5.61,0-3.36-2.72-6.08-6.08-6.08s-6.08,2.72-6.08,6.08c0,2.53,1.54,4.7,3.74,5.61h-.48c-2.58,0-4.67,2.09-4.67,4.67l1.4,11.94c0,2.71,2.2,4.91,4.91,4.91h2.34c2.71,0,4.91-2.2,4.91-4.91l1.4-11.94c0-2.58-2.09-4.67-4.67-4.67Z"/>
      </g>
    </g>
  </g>
</svg>