<?xml version="1.0" encoding="UTF-8"?>
<svg id="_圖層_2" data-name="圖層 2" xmlns="http://www.w3.org/2000/svg" xmlns:xlink="http://www.w3.org/1999/xlink" viewBox="0 0 354 130">
  <defs>
    <style>
      .cls-1 {
        filter: url(#drop-shadow-2);
        font-family: DFHei-Bd-HKP-BF, 'DFHei Bd-HKP-BF';
        font-size: 30px;
        letter-spacing: .1em;
      }

      .cls-1, .cls-2 {
        fill: #80402b;
      }

      .cls-3 {
        filter: url(#drop-shadow-1);
        opacity: .9;
      }

      .cls-3, .cls-4 {
        fill: #eedede;
      }
    </style>
    <filter id="drop-shadow-1" filterUnits="userSpaceOnUse">
      <feOffset dx="1.22" dy="1.22"/>
      <feGaussianBlur result="blur" stdDeviation="2.13"/>
      <feFlood flood-color="#7c483d" flood-opacity=".55"/>
      <feComposite in2="blur" operator="in"/>
      <feComposite in="SourceGraphic"/>
    </filter>
    <filter id="drop-shadow-2" filterUnits="userSpaceOnUse">
      <feOffset dx="1" dy="1"/>
      <feGaussianBlur result="blur-2" stdDeviation="2"/>
      <feFlood flood-color="#602e08" flood-opacity=".3"/>
      <feComposite in2="blur-2" operator="in"/>
      <feComposite in="SourceGraphic"/>
    </filter>
  </defs>
  <g id="_圖層_2-2" data-name="圖層 2">
    <rect class="cls-3" x="5.87" y="5.37" width="340.03" height="116" rx="45.06" ry="45.06"/>
    <text class="cls-1" transform="translate(154.57 73.94)"><tspan x="0" y="0">回應分享</tspan></text>
    <g>
      <path class="cls-2" d="m135.89,70.03c-.21,1.21-.37,2.44-.65,3.64-.7,3.1-1.96,5.97-3.76,8.59-.27.39-.31.71-.16,1.16,1.36,4.22,2.69,8.44,4.06,12.66.34,1.04.29,1.97-.57,2.72-.89.77-1.83.65-2.83.14-4.03-2.07-8.08-4.1-12.11-6.18-.54-.28-.96-.29-1.52-.08-9.88,3.68-19.36,2.87-28.3-2.78-1.64-1.04-3.03-2.46-4.57-3.68-.33-.26-.75-.48-1.15-.55-2.43-.38-4.81-.96-7.08-1.91-.59-.24-1.03-.2-1.59.09-4.03,2.08-8.07,4.13-12.12,6.15-.52.26-1.2.43-1.76.35-1.41-.21-2.08-1.58-1.6-3.1,1.35-4.25,2.7-8.49,4.07-12.73.14-.43.14-.76-.14-1.16-6.96-10.32-5.57-23.75,3.36-32.43,5.21-5.07,11.49-7.87,18.72-8.41,9.27-.69,17.33,2.14,24.04,8.66.24.23.63.37.97.43,9.62,1.53,17.06,6.26,21.81,14.88,1.57,2.85,2.45,5.94,2.75,9.19.02.17.08.33.13.49v3.87Zm-6.34,22.64c-.09-.35-.14-.58-.21-.81-.86-2.71-1.68-5.44-2.61-8.13-.42-1.23-.25-2.2.53-3.24,5.63-7.55,5.56-17.64-.23-25.08-4.57-5.87-10.69-8.95-18.05-9.52-7.74-.6-14.6,1.63-20.15,7.13-5.67,5.62-7.82,12.45-5.81,20.27,1.75,6.84,6.21,11.6,12.5,14.57,7.28,3.44,14.7,3.44,22.1.28,1.16-.49,2.14-.52,3.24.1,1.36.77,2.77,1.43,4.16,2.14,1.47.75,2.95,1.49,4.53,2.29Zm-26.07-51.31c-.31-.21-.61-.42-.92-.62-3.55-2.17-7.39-3.45-11.54-3.78-7-.55-13.34,1.21-18.78,5.7-5.35,4.41-8.2,10.11-8.06,17.12.09,4.42,1.57,8.4,4.23,11.91.7.92.86,1.82.5,2.91-.91,2.72-1.76,5.47-2.63,8.2-.09.27-.15.55-.25.94,2.94-1.49,5.79-2.88,8.57-4.38,1.21-.65,2.29-.72,3.51-.09.88.45,1.85.73,2.95,1.15-.23-.45-.36-.69-.48-.94-3.08-6.23-3.69-12.69-1.43-19.26,3.11-9.06,9.65-14.65,18.62-17.55,1.83-.59,3.75-.88,5.71-1.33Z"/>
      <path class="cls-2" d="m129.55,92.66c-1.58-.8-3.06-1.54-4.53-2.29-1.39-.71-2.8-1.37-4.16-2.14-1.09-.62-2.08-.59-3.24-.1-7.39,3.15-14.82,3.16-22.1-.28-6.29-2.97-10.74-7.73-12.5-14.57-2-7.82.14-14.65,5.81-20.27,5.55-5.5,12.42-7.72,20.15-7.13,7.35.57,13.48,3.65,18.05,9.52,5.79,7.44,5.86,17.52.23,25.08-.78,1.04-.95,2.01-.53,3.24.92,2.69,1.75,5.42,2.61,8.13.07.23.12.46.21.81Zm-31.77-26.8c-1.21,0-2.22,1.01-2.22,2.22,0,1.21.99,2.23,2.2,2.24,1.23.02,2.27-1.02,2.26-2.25-.01-1.2-1.03-2.21-2.24-2.2Zm20.09,2.24c0-1.2-.99-2.22-2.2-2.24-1.21-.02-2.23.97-2.26,2.18-.03,1.24,1,2.28,2.23,2.28,1.2,0,2.22-1.01,2.23-2.22Zm-11.17-2.24c-1.21,0-2.21,1.01-2.22,2.22,0,1.21,1,2.22,2.2,2.24,1.23.01,2.27-1.03,2.26-2.26-.02-1.21-1.04-2.21-2.24-2.2Z"/>
      <path class="cls-4" d="m103.48,41.35c-1.96.45-3.88.74-5.71,1.33-8.97,2.9-15.5,8.49-18.62,17.55-2.26,6.57-1.65,13.03,1.43,19.26.12.24.25.48.48.94-1.11-.42-2.08-.69-2.95-1.15-1.22-.63-2.3-.56-3.51.09-2.79,1.5-5.63,2.89-8.57,4.38.1-.39.16-.67.25-.94.87-2.74,1.73-5.48,2.63-8.2.36-1.09.2-1.99-.5-2.91-2.67-3.52-4.15-7.49-4.23-11.91-.14-7.02,2.72-12.71,8.06-17.12,5.44-4.49,11.78-6.25,18.78-5.7,4.15.33,7.99,1.6,11.54,3.78.31.19.61.41.92.62Z"/>
      <g>
        <path class="cls-4" d="m97.78,65.86c1.2,0,2.22,1,2.24,2.2.01,1.23-1.03,2.27-2.26,2.25-1.21-.02-2.2-1.04-2.2-2.24,0-1.21,1.02-2.21,2.22-2.22Z"/>
        <path class="cls-4" d="m117.88,68.1c0,1.2-1.02,2.21-2.23,2.22-1.23,0-2.26-1.05-2.23-2.28.03-1.21,1.05-2.2,2.26-2.18,1.21.02,2.21,1.04,2.2,2.24Z"/>
        <path class="cls-4" d="m106.71,65.86c1.21,0,2.22.99,2.24,2.2.02,1.23-1.02,2.27-2.26,2.26-1.21-.01-2.21-1.03-2.2-2.24,0-1.21,1.01-2.22,2.22-2.22Z"/>
      </g>
    </g>
  </g>
</svg>