<?xml version="1.0" encoding="UTF-8"?>
<svg id="_圖層_2" data-name="圖層 2" xmlns="http://www.w3.org/2000/svg" viewBox="0 0 50.61 50.61">
  <defs>
    <style>
      .cls-1 {
        fill: #fff;
      }

      .cls-2 {
        fill: #80402b;
      }
    </style>
  </defs>
  <g id="_圖層_2-2" data-name="圖層 2">
    <g>
      <circle class="cls-1" cx="27.48" cy="23.13" r="18.41"/>
      <g>
        <path class="cls-2" d="m50.61,23.67c-.07.57-.13,1.14-.21,1.71-1.14,7.99-5.36,13.8-12.5,17.46-3.62,1.85-7.52,2.5-11.58,2.14-3.22-.29-6.22-1.24-9.03-2.82-1.05-.59-1.21-.56-2.06.29-3.61,3.61-2.24,2.24-5.85,5.84-1.11,1.11-2.36,1.92-3.94,2.24-2.96.6-5.97-2.41-5.37-5.37.32-1.58,1.13-2.83,2.24-3.94,3.65-3.65,2.31-2.31,5.96-5.96.71-.71.75-.92.25-1.8-1.48-2.59-2.44-5.36-2.82-8.31-.47-3.69-.08-7.31,1.31-10.76,2.36-5.86,6.44-10.1,12.25-12.61,2.29-.99,4.69-1.56,7.19-1.71.16,0,.32-.05.48-.08.76,0,1.52,0,2.28,0,.12.03.24.07.37.08,2.13.12,4.2.53,6.18,1.3,8.14,3.17,12.98,9.06,14.53,17.65.14.78.21,1.57.31,2.35v2.28Zm-5.88-1.1c.04-9.13-7.38-16.64-16.62-16.67-9.26-.02-16.62,7.34-16.7,16.57-.08,9.17,7.37,16.68,16.6,16.73,9.17.05,16.67-7.41,16.71-16.63Z"/>
        <path class="cls-2" d="m36.19,12.15c0,1.79-1.53,2.9-3.09,2.35-1.22-.42-2.44-.82-3.74-.81-4.19.03-7.29,1.88-9.25,5.6-.32.61-.6,1.24-1.24,1.59-.9.49-1.93.38-2.67-.27-.75-.66-1-1.72-.59-2.67,1.03-2.37,2.55-4.36,4.62-5.91,3.07-2.29,6.53-3.32,10.33-2.89,1.43.16,2.85.62,4.23,1.08.94.31,1.38,1.11,1.41,1.93Z"/>
      </g>
    </g>
  </g>
</svg>