<?xml version="1.0" encoding="UTF-8"?>
<svg xmlns="http://www.w3.org/2000/svg" xmlns:xlink="http://www.w3.org/1999/xlink" viewBox="0 0 146 146">
  <defs>
    <style>
      .cls-1 {
        fill: #eedede;
        filter: url(#drop-shadow-1);
        mix-blend-mode: overlay;
        opacity: .8;
      }

      .cls-2 {
        isolation: isolate;
      }

      .cls-3 {
        fill: #aa4b41;
      }
    </style>
    <filter id="drop-shadow-1" filterUnits="userSpaceOnUse">
      <feOffset dx="2" dy="2"/>
      <feGaussianBlur result="blur" stdDeviation="2"/>
      <feFlood flood-color="#602e08" flood-opacity=".6"/>
      <feComposite in2="blur" operator="in"/>
      <feComposite in="SourceGraphic"/>
    </filter>
  </defs>
  <g class="cls-2">
    <g id="_圖層_2" data-name="圖層 2">
      <g id="_圖層_2-2" data-name="圖層 2">
        <circle class="cls-1" cx="71.08" cy="70.53" r="66.51"/>
        <g>
          <path class="cls-3" d="m74,70.87c0,8.49,0,16.97,0,25.46,0,2.15-1.29,3.64-3.4,3.98-1.28.2-2.35-.25-3.32-1.02-4.64-3.69-9.38-7.27-13.89-11.1-2.09-1.78-4.19-2.76-7.01-2.42-1.43.17-2.9.06-4.35,0-4.08-.14-7.42-3.25-7.48-7.12-.08-5.25-.08-10.51,0-15.77.06-3.87,3.41-6.99,7.49-7.11,2.44-.07,4.88.01,7.31-.05.56-.02,1.22-.23,1.64-.57,5.45-4.28,10.87-8.59,16.3-12.9.97-.77,2.04-1.22,3.32-1.01,2.05.33,3.38,1.8,3.39,3.81.02,3.93,0,7.87,0,11.8,0,4.67,0,9.34,0,14.01Z"/>
          <path class="cls-3" d="m105,72.92c-.5,10.92-6.3,20.75-17.84,27.03-1.83.99-3.79.41-4.65-1.3-.85-1.68-.16-3.54,1.65-4.5,7.86-4.19,12.66-10.68,14.02-19.5,1.73-11.2-3.87-21.92-13.92-27.21-.7-.37-1.36-1.02-1.76-1.7-.7-1.19-.35-2.68.63-3.66.97-.96,2.45-1.31,3.67-.62,1.92,1.09,3.88,2.19,5.62,3.54,8,6.17,12.58,15.65,12.59,27.94Z"/>
          <path class="cls-3" d="m91.96,70.81c-.06,4.23-1.28,8.09-3.77,11.53-1.16,1.61-3.12,2-4.63.95-1.55-1.08-1.84-3.05-.69-4.74,3.41-5.03,3.41-10.51,0-15.53-1.15-1.7-.88-3.64.67-4.74,1.52-1.08,3.49-.67,4.68.99,2.48,3.44,3.69,7.3,3.73,11.54Z"/>
        </g>
      </g>
    </g>
  </g>
</svg>